<svg version="1.1" xmlns="http://www.w3.org/2000/svg" xmlns:xlink="http://www.w3.org/1999/xlink" x="0px" y="0px"
	 width="409.39px" height="483.57px" viewBox="0 0 409.39 483.57" style="enable-background:new 0 0 409.39 483.57;"
	 xml:space="preserve">
<style type="text/css">
	.st0{fill:none;stroke:#000000;stroke-width:2;}
</style>
<defs>
</defs>
<g>
	<path class="st0" d="M242.05,16.28c8.94,18.35,17.66,40.24,11.07,58.6c-6.39,17.8-7.02,22.32-5.34,40.59
		c-0.33,1.19-0.62,2.27-0.94,3.46c-3.07,4.25-12.28,13.97-24.54-0.83c-0.46-0.56-0.75-1.25-0.84-1.96l0,0
		c-0.01-0.04-3.61-18.68,21.31-20.09c0,0,0,0,0,0c0.02,0.02,14.58,11.03,10.35,1.41c-4.23-9.62-1.89-8.94-1.88-8.94c0,0,0,0,0,0
		c0.01,0.01,8.94,10.82,8.94,14.59c0,3.76-5.18,4.71-6.59,8.47c-0.66,1.77-1.32,3.95-1.84,5.76c-0.59,2.06-1.49,4.01-2.73,5.75
		c-2.16,3.01-5.61,9.32-6.25,19.54c-0.91,14.51-9.24,18.1-9.85,18.34c-0.02,0.01-0.03,0.03-0.03,0.05c0.1,0.87,1.78,16.2-1.42,24.43
		c-3.14,8.07-35.35,59.32-83.18,4.22c-4.87-5.62-7.05-13.08-5.86-20.42c0.38-2.35,0.87-5.1,1.51-8.27
		c2.75-13.74-90.35,40-97.74,58.6c-0.19,0.49-7.95,15.33-8.27,15.75C27.23,249,19.78,259.41,57.83,368.05
		c0,0,19.29,98.35,83.76,95.53c64.47-2.82,124.24-17.41,124.24-17.41s10.82,0.47,21.65,8c10.82,7.53,14.12,2.94,18.82,9.47
		c0,0,0,0,0,0c0,0,2.47,10.09,2,16.2c-0.47,6.12-228.71,0-228.71,0l-16.94-0.94c0,0,0,0,0,0c0,0-11.29,2.82-12.71-14.12
		c-1.41-16.94,3.76-85.18,1.88-91.76c-1.88-6.59,5.18-13.18-51.76-9.41"/>
	<path class="st0" d="M409.33,390.37l-39.06-2.35c0,0-30.59,2.82-40.94-12.71s-20.18,9.88-20.18,9.88s-11.35,15.21-11.35-4.87
		c0-20.07,6.12-21.96,6.12-21.96l2.44-3.29c1.55-2.09,1.71-4.87,0.52-7.2c-2.25-4.4-3.44-11.6,12.09-12.57
		c22.59-1.41,45.18-40,45.18-40l22.12-33.41c0,0,8-15.53-27.29-6.12c-35.29,9.41-71.53,6.12-71.53,6.12s-24.47,2.35-9.88,32.94
		c0,0-12.71,10.35-6.59,18.35s15.06-9.88,15.06-23.53s-18.82-0.94-18.82-0.94s-7.06,0-3.29-11.29s-29.65-22.12-29.65-22.12
		l-55.53-15.53c0,0-35.29-3.76-14.59,6.59s99.29,26.82,93.65,40c-5.65,13.18-15.06,23.06-21.18,60.24c0,0-23.53,17.41-55.06-1.88
		c-31.53-19.29-59.76-29.81-59.76-29.81s-12.24,5.34,16.47-46.43l16.74-38.12c0,0-5.44-8.94,31.73,4.71
		c37.18,13.65,55.53-34.35,55.53-34.35s4.24-31.06,19.76-19.76c15.53,11.29,63.06,31.53,68.71,48.94s14.59,137.25,23.06,147.76
		c8.24,10.24,1.78,68.75-26.77,73.17c-1.55,0.24-3.09,0.54-4.6,0.99c-8.56,2.51-40.83,8.33-73.1-33.22c0,0-12.24-10.82-18.82-41.88
		l-27.06-38.12c0,0-28.52-30.49-18.86-4.41c0.16,0.44,0.42,0.83,0.75,1.16c4.72,4.62,43.11,38.01,40.47,23.49
		c0,0-9.88-9.41-13.18-19.29c-3.29-9.88-19.76-23.5-19.76-23.5s-2.83-13.68,10.59-3.32c13.41,10.35,20,25.88,20,25.88
		s15.53,15.06,3.76-4.71c-10.05-16.88-18.72-25.87-11.36-27.84c2.84-0.76,5.86,0.31,7.79,2.53l22.4,25.78
		c0,0,12.56,18.06,9.88-10.35c-2.68-28.41,8.35-11.76,8.35-11.76s4.82,7.06,5.77,23.53c0.94,16.47,25.88-14.12,25.88-14.12
		s5.49-12.28,14.87-12.74c3.57-0.17,6.06,3.47,4.82,6.82c-2.25,6.07-7.84,16.99-21.58,31.33c0,0-5.65,7.53-4.24,23.53
		c1.41,16-6.83,21.18-25.53,22.12c-18.7,0.94-18.7,5.18-41.29-13.65c0,0-85.65,16-81.88-16.47s-26.35-132.24-26.35-132.24
		s0-40.94,23.53-62.59c0,0,7.59-2.82,16.74-14.59c9.15-11.76,24.68,10.82,24.68,10.82s10.35,9.41,28.24,5.18
		c17.88-4.24,26.82,13.18-0.47,15.53s-46.59-24-46.59-24s-11.31-14.42-6.47-36.94c0.39-1.8,0.4-3.66,0.04-5.46l-6.61-32.75
		c-0.38-1.9-0.2-3.86,0.54-5.65c1.99-4.82,6.22-15.69,9.68-28.85c4.71-17.88,16.94-41.88,24.94-26.35s7.53,3.76,7.53,3.76
		s-3.76-24.59,7.06-8.76c10.82,15.82,43.29,49.23,43.29,49.23s16.94,21.18-13.18,16.94c0,0-20.71,12.24-28.71-3.76
		c0,0,2.13-33.27-13.09-16.56c-1.48,1.62-2.48,3.61-2.9,5.76c-1.24,6.43-5.35,21.3-16.48,18.33c-14.12-3.76-18.82,10.35-0.94,16.47
		c0,0,5.65,8.47,11.29,3.76c5.31-4.42,12.7-11.34,28.42-5.51c2.06,0.76,4.21,1.29,6.38,1.61c1.41,0.21,3.29,0.54,5.67,1.08
		c4.11,0.93,1.64,2.95-0.43,4.17c-0.88,0.52-1.85,0.83-2.85,1.05c-1.38,0.29-3.99,1.76-5.66,8.43
		c-2.35,9.41-13.18,23.06-30.59,11.29l-6.12-14.12c0,0-25.88-24.47-30.12-9.41c-4.24,15.06-7.06,11.29-10.35,0.94
		c0,0,7.29-25.91-8.18-13.14c-2.59,2.14-3.77,5.54-2.98,8.8c2.32,9.67,8.67,30.18,21.52,34.46c16.94,5.65,4.71-28.24,4.71-28.24
		s4.71-15.53-20.24-29.65S125.36,3.12,151.35,7.8c0,0,35.61-1.96,48.68-5.93c13.07-3.98,37.41,6.48,42.02,14.41"/>
</g>
</svg>
