<svg xmlns="http://www.w3.org/2000/svg" viewBox="0 0 500 500"><g id="freepik--Flag--inject-144"><g id="freepik--flag--inject-144"><path d="M248.17,262.53l-.51-226.09h-1.93l.52,226.11C246.28,263.31,248.19,263.27,248.17,262.53Z" style="fill:#455a64"></path><path d="M244.64,36.87a2.12,2.12,0,1,0,1.63-2.52A2.12,2.12,0,0,0,244.64,36.87Z" style="fill:#37474f"></path><path d="M244.7,32.86a2.12,2.12,0,1,0,4.24,0c0-3-2-6.8-2-6.8S244.73,29.85,244.7,32.86Z" style="fill:#37474f"></path><path d="M247.66,38.31c11,13.11,26.63,7.23,39.51,6.45,13.95-.85,22.45,3.64,26.69,9.76-4-1.07-15.34,0-18.9,2.92,0,0,14.23,9.27,14.27,24.5-4.15-6.45-11.35-11.3-25.27-8.42-12.23,2.53-27.71,8.18-36.22-1.23Z" style="fill:#433B87"></path><path d="M261.3,72.3c11.24,3.39,41.86-11.58,47.93,9.64-4.15-6.45-11.35-11.3-25.27-8.42-12.23,2.53-27.71,8.18-36.22-1.23l-.08-34C247.73,51.68,250.05,68.9,261.3,72.3Z" style="opacity:0.1"></path><path d="M272.72,51.24l-1.91,5.86-6.1.83a.4.4,0,0,0-.19.73l5,3.64-1.09,6a.41.41,0,0,0,.64.41l5-3.61,5.43,2.92a.41.41,0,0,0,.58-.49l-1.89-5.86,4.45-4.26a.41.41,0,0,0-.28-.71h-6.16l-2.68-5.55A.41.41,0,0,0,272.72,51.24Z" style="fill:#fff;opacity:0.7000000000000001"></path></g></g><g id="freepik--Floor--inject-144"><ellipse id="freepik--floor--inject-144" cx="250" cy="359.72" rx="230.07" ry="132.83" style="fill:#fafafa"></ellipse></g><g id="freepik--chess-pieces--inject-144"><g id="freepik--chess-piece--inject-144"><path d="M137.36,382.38c6.73-3.88,17.64-3.88,24.36,0,3.37,1.94,5,4.49,5,7v2.91c0,2.55-1.66,5.1-5,7-6.73,3.88-17.64,3.88-24.37,0-3.37-1.94-5-4.49-5-7,0-.49,0-2.42,0-2.91C132.33,386.87,134,384.32,137.36,382.38Z" style="fill:#433B87"></path><path d="M137.36,382.38c6.73-3.88,17.64-3.88,24.36,0,3.37,1.94,5,4.49,5,7v2.91c0,2.55-1.66,5.1-5,7-6.73,3.88-17.64,3.88-24.37,0-3.37-1.94-5-4.49-5-7,0-.49,0-2.42,0-2.91C132.33,386.87,134,384.32,137.36,382.38Z" style="opacity:0.2"></path><path d="M157.5,380.59a19.77,19.77,0,0,1,4.22,1.79c3.37,1.94,5,4.49,5,7v2.91c0,2.55-1.66,5.1-5,7a20.07,20.07,0,0,1-4.23,1.79Z" style="opacity:0.2"></path><path d="M161.72,382.38c-6.72-3.88-17.63-3.88-24.36,0s-6.73,10.18,0,14.07,17.64,3.88,24.37,0S168.45,386.27,161.72,382.38Z" style="fill:#433B87"></path><path d="M161.72,382.38c-6.72-3.88-17.63-3.88-24.36,0s-6.73,10.18,0,14.07,17.64,3.88,24.37,0S168.45,386.27,161.72,382.38Z" style="opacity:0.4"></path><path d="M149.56,375.66c16.46,0,18.6,7.09,18.6,10.74s-2.23,6.7-6.82,9.35h0a26.16,26.16,0,0,1-23.55,0c-4.59-2.65-6.82-5.69-6.82-9.35S133.09,375.66,149.56,375.66Z" style="fill:#433B87"></path><path d="M143.41,390.51l.3,0c1.23.17,3.48,0,4.47,1,1.68,1.62-.63,3-2.08,3.46a10.41,10.41,0,0,1-7.26-.66,11.15,11.15,0,0,1-4.77-4.06c-.45-.76-1.29-3-.17-3.51a1.54,1.54,0,0,1,1.78.44,14.12,14.12,0,0,0,1.75,1.23,11.85,11.85,0,0,0,1.7,1A15.77,15.77,0,0,0,143.41,390.51Z" style="fill:#fff;opacity:0.1"></path><path d="M151.56,388.38c-9.72.87-16.53-3-18.93-7.16,2.14-2.9,6.84-5.56,16.93-5.56,16.46,0,18.6,7.09,18.6,10.74s-2.23,6.7-6.82,9.35h0a26.16,26.16,0,0,1-23.55,0,21.46,21.46,0,0,1-2.81-1.91c3.47,2.41,9.2,4.2,16.6,3.12S161.69,387.47,151.56,388.38Z" style="opacity:0.1"></path><path d="M157.48,385.36l.91-8.8c8.46,2,9.77,7,9.77,9.84,0,3.66-2.23,6.7-6.82,9.35h0l-.45.23C166,392.7,162.82,383.8,157.48,385.36Z" style="opacity:0.1"></path><path d="M138.07,367c6.34-3.66,16.61-3.66,22.94,0,3.17,1.82,4.74,4.22,4.74,6.62v3.59c0,2.4-1.56,4.8-4.73,6.63-6.34,3.66-16.61,3.66-23,0-3.17-1.83-4.74-4.23-4.73-6.63v-3.59C133.33,371.19,134.9,368.8,138.07,367Z" style="fill:#433B87"></path><path d="M138.07,367c6.34-3.66,16.61-3.66,22.94,0,3.17,1.82,4.74,4.22,4.74,6.62v3.59c0,2.4-1.56,4.8-4.73,6.63-6.34,3.66-16.61,3.66-23,0-3.17-1.83-4.74-4.23-4.73-6.63v-3.59C133.33,371.19,134.9,368.8,138.07,367Z" style="opacity:0.2"></path><path d="M161,383.81a18.34,18.34,0,0,1-3.52,1.53v-19.9A17.65,17.65,0,0,1,161,367c3.17,1.82,4.74,4.22,4.74,6.62v3.59C165.76,379.58,164.19,382,161,383.81Z" style="opacity:0.2"></path><path d="M161,367c-6.33-3.66-16.6-3.66-22.94,0s-6.33,9.58,0,13.24,16.61,3.66,23,0S167.35,370.62,161,367Z" style="fill:#433B87"></path><path d="M161,367c-6.33-3.66-16.6-3.66-22.94,0s-6.33,9.58,0,13.24,16.61,3.66,23,0S167.35,370.62,161,367Z" style="fill:#fff;opacity:0.2"></path><path d="M135.39,371.15h0c1.95-4,6.87-16.06,6.87-35.82h14.6c0,19.76,4.92,31.82,6.87,35.82h0c1.19,2.61-.07,5.47-3.83,7.5-5.7,3.09-15,3.09-20.65,0C135.46,376.62,134.2,373.76,135.39,371.15Z" style="fill:#433B87"></path><path d="M142.74,348.38a90.48,90.48,0,0,1-4,18.38c-1.27,3.87-3.13,6.51-.69,8.92s8.42,3.15,8.42,3.15a18.85,18.85,0,0,1-5.89-3.5c-2.49-2.33-1-5.7-.25-8.57C141.54,362.09,143.17,354.81,142.74,348.38Z" style="fill:#fff;opacity:0.1"></path><path d="M147.64,380.9c1.25-.49,3.82-1.37,1.9-10.94s-1.88-24.64-1.83-34.63h9.13c0,19.76,4.92,31.82,6.87,35.82h0c1.19,2.61-.07,5.47-3.83,7.5A23.14,23.14,0,0,1,147.64,380.9Z" style="opacity:0.1"></path><path d="M156.14,365c-1.7-6.4-2.21-19.58-2.25-29.7h3c0,19.76,4.92,31.82,6.87,35.82h0c1.19,2.61-.07,5.47-3.83,7.5a17.26,17.26,0,0,1-3.17,1.3C161.45,377.05,157.91,371.69,156.14,365Z" style="opacity:0.1"></path><path d="M141.42,324.64c4.48-2.59,11.76-2.59,16.25,0,2.24,1.29,3.36,3,3.35,4.69v4.17c0,1.7-1.1,3.4-3.35,4.7-4.49,2.59-11.76,2.59-16.25,0-2.25-1.3-3.36-3-3.36-4.7,0-.32,0-3.85,0-4.17C138.06,327.63,139.17,325.93,141.42,324.64Z" style="fill:#433B87"></path><path d="M141.42,324.64c4.48-2.59,11.76-2.59,16.25,0,2.24,1.29,3.36,3,3.35,4.69v4.17c0,1.7-1.1,3.4-3.35,4.7-4.49,2.59-11.76,2.59-16.25,0-2.25-1.3-3.36-3-3.36-4.7,0-.32,0-3.85,0-4.17C138.06,327.63,139.17,325.93,141.42,324.64Z" style="opacity:0.2"></path><path d="M150.9,322.75a15.88,15.88,0,0,1,6.77,1.89c2.24,1.29,3.36,3,3.35,4.69v4.17c0,1.7-1.1,3.4-3.35,4.7a16,16,0,0,1-6.77,1.89Z" style="opacity:0.2"></path><path d="M157.67,324.64c-4.49-2.59-11.77-2.59-16.25,0s-4.49,6.79,0,9.38,11.76,2.59,16.25,0S162.16,327.23,157.67,324.64Z" style="fill:#433B87"></path><path d="M157.67,324.64c-4.49-2.59-11.77-2.59-16.25,0s-4.49,6.79,0,9.38,11.76,2.59,16.25,0S162.16,327.23,157.67,324.64Z" style="fill:#fff;opacity:0.2"></path><path d="M140.52,307.54c5-2.88,13.06-2.88,18,0,2.87,1.65,4.07,3.9,3.65,6.06h0L159,329.19h0a5.18,5.18,0,0,1-2.72,3.23,15,15,0,0,1-13.51,0,5.18,5.18,0,0,1-2.72-3.23h0l-3.2-15.59h0C136.44,311.44,137.65,309.19,140.52,307.54Z" style="fill:#433B87"></path><path d="M139.7,308.07c.69,5.81,2.19,17.61,3,24.32a5.16,5.16,0,0,1-2.67-3.2h0l-3.2-15.59h0C136.49,311.66,137.43,309.66,139.7,308.07Z" style="fill:#fff;opacity:0.1"></path><path d="M155.72,306.31a14.33,14.33,0,0,1,2.85,1.23c2.87,1.65,4.07,3.9,3.65,6.06h0L159,329.19h0a5.18,5.18,0,0,1-2.72,3.23,11.22,11.22,0,0,1-2.68,1.08Z" style="opacity:0.1"></path><path d="M158.57,307.54c-5-2.88-13.07-2.88-18,0s-5,7.54,0,10.42,13.07,2.88,18,0S163.55,310.42,158.57,307.54Z" style="fill:#433B87"></path><path d="M158.57,307.54c-5-2.88-13.07-2.88-18,0s-5,7.54,0,10.42,13.07,2.88,18,0S163.55,310.42,158.57,307.54Z" style="fill:#fff;opacity:0.2"></path><path d="M140.7,309h0l.19-.17.19-.18a12.48,12.48,0,0,1,16.94,0l.26.24c.06.07.13.12.2.19h0c2.18,2.25,1.63,5.14-1.69,7.05a16,16,0,0,1-14.46,0C139,314.23,138.44,311.3,140.7,309Z" style="fill:#433B87"></path><path d="M145,306.76a12.45,12.45,0,0,0-4.13,3,4.06,4.06,0,0,0,.28,4.41,5.75,5.75,0,0,1,.45-4.13A11,11,0,0,1,145,306.76Z" style="fill:#fff;opacity:0.2"></path><path d="M156.49,314c2.51-2.35,1.24-5-.58-6.86a12.79,12.79,0,0,1,2.1,1.55l.26.24c.06.07.13.12.2.19h0c2.18,2.25,1.63,5.14-1.69,7.05a16,16,0,0,1-14.46,0,7.59,7.59,0,0,1-1.73-1.33c.14.12,1.28,1.16,5.16,1.56C151.7,317,154.57,315.79,156.49,314Z" style="opacity:0.1"></path><path d="M144.27,302.67a5.28,5.28,0,1,0,5.27-5.27A5.27,5.27,0,0,0,144.27,302.67Z" style="fill:#433B87"></path><path d="M144.27,302.67a5.28,5.28,0,1,0,5.87-5.23,4.36,4.36,0,1,1-5.86,5.08A.81.81,0,0,0,144.27,302.67Z" style="opacity:0.2"></path><path d="M148,298.34a2.54,2.54,0,0,1,1.13,0,1.05,1.05,0,0,1,.9,1.09c0,.67-.78.94-1.32,1.11l-.94.29c-.41.13-.77.38-1.18.49s-.68-.23-.7-.62a1.84,1.84,0,0,1,.2-.93,2.42,2.42,0,0,1,.67-.82A2.67,2.67,0,0,1,148,298.34Z" style="fill:#fff;opacity:0.2"></path></g><g id="freepik--chess-piece--inject-144"><path d="M356.54,382.38c-6.73-3.88-17.64-3.88-24.37,0-3.36,1.94-5,4.49-5,7v2.91c0,2.55,1.65,5.1,5,7,6.73,3.88,17.64,3.88,24.37,0,3.37-1.94,5-4.49,5-7v-2.91C361.57,386.87,359.9,384.32,356.54,382.38Z" style="fill:#37474f"></path><path d="M356.54,382.38c-6.73-3.88-17.64-3.88-24.37,0-3.36,1.94-5,4.49-5,7v2.91c0,2.55,1.65,5.1,5,7,6.73,3.88,17.64,3.88,24.37,0,3.37-1.94,5-4.49,5-7v-2.91C361.57,386.87,359.9,384.32,356.54,382.38Z" style="opacity:0.2"></path><path d="M336.4,380.59a20.07,20.07,0,0,0-4.23,1.79c-3.36,1.94-5,4.49-5,7v2.91c0,2.55,1.65,5.1,5,7a20.07,20.07,0,0,0,4.23,1.79Z" style="opacity:0.2"></path><path d="M332.17,382.38c6.73-3.88,17.64-3.88,24.37,0s6.72,10.18,0,14.07-17.64,3.88-24.37,0S325.45,386.27,332.17,382.38Z" style="fill:#37474f"></path><path d="M332.17,382.38c6.73-3.88,17.64-3.88,24.37,0s6.72,10.18,0,14.07-17.64,3.88-24.37,0S325.45,386.27,332.17,382.38Z" style="opacity:0.4"></path><path d="M344.34,375.66c-16.47,0-18.6,7.09-18.6,10.74s2.23,6.7,6.81,9.35h0a26.16,26.16,0,0,0,23.55,0c4.59-2.65,6.81-5.69,6.81-9.35S360.81,375.66,344.34,375.66Z" style="fill:#37474f"></path><path d="M350.49,390.51l-.3,0c-1.23.17-3.48,0-4.48,1-1.67,1.62.64,3,2.08,3.46a10.44,10.44,0,0,0,7.27-.66,11.21,11.21,0,0,0,4.77-4.06c.45-.76,1.29-3,.17-3.51a1.54,1.54,0,0,0-1.78.44,14.12,14.12,0,0,1-1.75,1.23,12.42,12.42,0,0,1-1.7,1A15.87,15.87,0,0,1,350.49,390.51Z" style="fill:#fff;opacity:0.1"></path><path d="M342.34,388.38c9.72.87,16.53-3,18.93-7.16-2.14-2.9-6.84-5.56-16.93-5.56-16.47,0-18.6,7.09-18.6,10.74s2.23,6.7,6.81,9.35h0a26.16,26.16,0,0,0,23.55,0,22.9,22.9,0,0,0,2.81-1.91c-3.47,2.41-9.2,4.2-16.6,3.12S332.21,387.47,342.34,388.38Z" style="opacity:0.1"></path><path d="M336.41,385.36l-.9-8.8c-8.46,2-9.77,7-9.77,9.84,0,3.66,2.23,6.7,6.81,9.35h0l.45.23C327.94,392.7,331.08,383.8,336.41,385.36Z" style="opacity:0.1"></path><path d="M355.83,367c-6.34-3.66-16.61-3.66-22.95,0-3.16,1.82-4.74,4.22-4.73,6.62v3.59c0,2.4,1.56,4.8,4.73,6.63,6.34,3.66,16.61,3.66,22.95,0,3.17-1.83,4.74-4.23,4.73-6.63v-3.59C360.57,371.19,359,368.8,355.83,367Z" style="fill:#37474f"></path><path d="M355.83,367c-6.34-3.66-16.61-3.66-22.95,0-3.16,1.82-4.74,4.22-4.73,6.62v3.59c0,2.4,1.56,4.8,4.73,6.63,6.34,3.66,16.61,3.66,22.95,0,3.17-1.83,4.74-4.23,4.73-6.63v-3.59C360.57,371.19,359,368.8,355.83,367Z" style="opacity:0.2"></path><path d="M332.88,383.81a18.34,18.34,0,0,0,3.52,1.53v-19.9a17.74,17.74,0,0,0-3.52,1.53c-3.16,1.82-4.74,4.22-4.73,6.62v3.59C328.14,379.58,329.71,382,332.88,383.81Z" style="opacity:0.2"></path><path d="M332.88,367c6.34-3.66,16.61-3.66,22.95,0s6.33,9.58,0,13.24-16.61,3.66-22.95,0S326.55,370.62,332.88,367Z" style="fill:#37474f"></path><path d="M332.88,367c6.34-3.66,16.61-3.66,22.95,0s6.33,9.58,0,13.24-16.61,3.66-22.95,0S326.55,370.62,332.88,367Z" style="fill:#fff;opacity:0.2"></path><path d="M358.51,371.15h0c-1.95-4-6.87-16.06-6.87-35.82H337.05c0,19.76-4.91,31.82-6.86,35.82h0c-1.19,2.61.07,5.47,3.83,7.5,5.7,3.09,15,3.09,20.65,0C358.44,376.62,359.7,373.76,358.51,371.15Z" style="fill:#37474f"></path><path d="M351.15,348.38a91.15,91.15,0,0,0,4,18.38c1.27,3.87,3.13,6.51.68,8.92s-8.41,3.15-8.41,3.15a18.75,18.75,0,0,0,5.88-3.5c2.5-2.33,1-5.7.26-8.57C352.36,362.09,350.73,354.81,351.15,348.38Z" style="fill:#fff;opacity:0.1"></path><path d="M346.26,380.9c-1.25-.49-3.82-1.37-1.91-10.94s1.88-24.64,1.84-34.63h-9.14c0,19.76-4.91,31.82-6.86,35.82h0c-1.19,2.61.07,5.47,3.83,7.5A23.14,23.14,0,0,0,346.26,380.9Z" style="opacity:0.1"></path><path d="M337.76,365c1.7-6.4,2.21-19.58,2.25-29.7h-3c0,19.76-4.91,31.82-6.86,35.82h0c-1.19,2.61.07,5.47,3.83,7.5a17,17,0,0,0,3.17,1.3C332.44,377.05,336,371.69,337.76,365Z" style="opacity:0.1"></path><path d="M352.48,324.64c-4.49-2.59-11.76-2.59-16.25,0-2.24,1.29-3.36,3-3.35,4.69v4.17c0,1.7,1.1,3.4,3.35,4.7,4.49,2.59,11.76,2.59,16.25,0,2.25-1.3,3.36-3,3.35-4.7v-4.17C355.84,327.63,354.73,325.93,352.48,324.64Z" style="fill:#37474f"></path><path d="M352.48,324.64c-4.49-2.59-11.76-2.59-16.25,0-2.24,1.29-3.36,3-3.35,4.69v4.17c0,1.7,1.1,3.4,3.35,4.7,4.49,2.59,11.76,2.59,16.25,0,2.25-1.3,3.36-3,3.35-4.7v-4.17C355.84,327.63,354.73,325.93,352.48,324.64Z" style="opacity:0.2"></path><path d="M343,322.75a15.88,15.88,0,0,0-6.77,1.89c-2.25,1.29-3.36,3-3.35,4.69v4.17c0,1.7,1.1,3.4,3.35,4.7a16,16,0,0,0,6.77,1.89Z" style="opacity:0.2"></path><path d="M336.23,324.64c4.49-2.59,11.76-2.59,16.25,0s4.49,6.79,0,9.38-11.76,2.59-16.25,0S331.74,327.23,336.23,324.64Z" style="fill:#37474f"></path><path d="M336.23,324.64c4.49-2.59,11.76-2.59,16.25,0s4.49,6.79,0,9.38-11.76,2.59-16.25,0S331.74,327.23,336.23,324.64Z" style="fill:#fff;opacity:0.2"></path><path d="M353.38,307.54c-5-2.88-13.06-2.88-18.05,0-2.87,1.65-4.08,3.9-3.65,6.06h0l3.2,15.59h0a5.18,5.18,0,0,0,2.72,3.23,15,15,0,0,0,13.51,0,5.18,5.18,0,0,0,2.72-3.23h0L357,313.6h0C357.46,311.44,356.25,309.19,353.38,307.54Z" style="fill:#37474f"></path><path d="M354.2,308.07c-.69,5.81-2.19,17.61-3.05,24.32a5.18,5.18,0,0,0,2.68-3.2h0L357,313.6h0C357.41,311.66,356.47,309.66,354.2,308.07Z" style="fill:#fff;opacity:0.1"></path><path d="M338.18,306.31a14.08,14.08,0,0,0-2.85,1.23c-2.87,1.65-4.08,3.9-3.65,6.06h0l3.2,15.59h0a5.18,5.18,0,0,0,2.72,3.23,11.22,11.22,0,0,0,2.68,1.08Z" style="opacity:0.1"></path><path d="M335.33,307.54c5-2.88,13.07-2.88,18.05,0s5,7.54,0,10.42-13.07,2.88-18.05,0S330.34,310.42,335.33,307.54Z" style="fill:#37474f"></path><path d="M335.33,307.54c5-2.88,13.07-2.88,18.05,0s5,7.54,0,10.42-13.07,2.88-18.05,0S330.34,310.42,335.33,307.54Z" style="fill:#fff;opacity:0.2"></path><path d="M353.2,309h0l-.19-.17-.19-.18a12.48,12.48,0,0,0-16.94,0l-.26.24c-.06.07-.14.12-.2.19h0c-2.18,2.25-1.63,5.14,1.68,7.05a16,16,0,0,0,14.46,0C354.93,314.23,355.46,311.3,353.2,309Z" style="fill:#37474f"></path><path d="M348.88,306.76a12.28,12.28,0,0,1,4.12,3,4,4,0,0,1-.27,4.41,5.8,5.8,0,0,0-.45-4.13A11,11,0,0,0,348.88,306.76Z" style="fill:#fff;opacity:0.2"></path><path d="M337.41,314c-2.51-2.35-1.25-5,.58-6.86a12.79,12.79,0,0,0-2.1,1.55l-.26.24c-.06.07-.14.12-.2.19h0c-2.18,2.25-1.63,5.14,1.68,7.05a16,16,0,0,0,14.46,0,7.17,7.17,0,0,0,1.73-1.33c-.13.12-1.28,1.16-5.15,1.56C342.19,317,339.32,315.79,337.41,314Z" style="opacity:0.1"></path><path d="M349.63,302.67a5.28,5.28,0,1,1-5.28-5.27A5.27,5.27,0,0,1,349.63,302.67Z" style="fill:#37474f"></path><path d="M349.63,302.67a5.28,5.28,0,1,1-5.87-5.23,4.36,4.36,0,1,0,5.86,5.08A.81.81,0,0,1,349.63,302.67Z" style="opacity:0.2"></path><path d="M345.9,298.34a2.54,2.54,0,0,0-1.13,0,1.07,1.07,0,0,0-.91,1.09c0,.67.79.94,1.33,1.11l.94.29c.41.13.77.38,1.18.49s.67-.23.69-.62a1.73,1.73,0,0,0-.19-.93,2.34,2.34,0,0,0-.68-.82A2.6,2.6,0,0,0,345.9,298.34Z" style="fill:#fff;opacity:0.2"></path></g></g><g id="freepik--money-symbol--inject-144"><g id="freepik--shadow--inject-144"><ellipse cx="247" cy="434.96" rx="67.26" ry="38.83" style="fill:#433B87;opacity:0.2"></ellipse><g style="opacity:0.2"><path d="M247,482.11c-19.81,0-39.62-4.57-54.7-13.71-14.71-8.91-22.81-20.79-22.8-33.44s8.09-24.53,22.8-33.44c30.16-18.29,79.24-18.29,109.4,0h0c14.7,8.92,22.8,20.79,22.8,33.45s-8.1,24.53-22.8,33.44C286.62,477.54,266.81,482.11,247,482.11Zm0-93.26c-19.62,0-39.22,4.52-54.15,13.57-14.38,8.71-22.29,20.27-22.29,32.54s7.91,23.82,22.28,32.53c29.87,18.1,78.45,18.1,108.31,0,14.37-8.71,22.29-20.26,22.29-32.53s-7.92-23.83-22.29-32.54C286.22,393.37,266.61,388.85,247,388.85Z" style="fill:#433B87"></path></g></g><g id="freepik--money-sign--inject-144"><polygon points="276.31 317 260.23 307.7 291.33 281.18 307.4 290.46 276.31 317" style="fill:#433B87"></polygon><path d="M286.18,323.13c-8.22-5.83-22.5-1.43-34.58,2.39-2.91,1-5.54,1.84-7.91,2.57a14.48,14.48,0,0,0-1.19,5.6c0,9.36,7.94,6.81,25.2,1.13a125.8,125.8,0,0,1,17.82-4.69c.53,4.76,3.84,9.09,16.74,2.29Z" style="fill:#433B87"></path><polygon points="246.36 445.03 230.29 435.75 230.29 416.76 246.36 426.07 246.36 445.03" style="fill:#433B87"></polygon><path d="M273.59,373c0,7.54-5.68,14.27-14.07,19.16-13.4,7.78-18.61,1.45-19.75-4.75l-2.83-1.64a30.44,30.44,0,0,0,6.51-2.91c6.35-3.7,11.14-8.47,13.08-13.84C266.45,365.76,273.59,364.49,273.59,373Z" style="fill:#433B87"></path><path d="M213.82,419.5a10.61,10.61,0,0,0-5.87-1.43c-.32-.95-.61-1.94-.86-3L191,405.78c1.59,7,4.79,11.33,9,13.73h0l16,9.27S218.77,422.73,213.82,419.5Z" style="fill:#433B87"></path><path d="M267.7,334.82c-17.26,5.68-25.2,8.23-25.2-1.13a14.48,14.48,0,0,1,1.19-5.6c-11.78,3.64-17.26,4.1-17.26-3.68,0-5.72,3.86-12.77,14.5-19,11.37-6.6,17.72-5.05,19.3,2.25l31.1-26.52c-.13-.4-.29-.76-.44-1.15a19.59,19.59,0,0,0,5.52-2.12l-12.82-7.62c-.4-.26-.81-.5-1.23-.73l-.19-.11h0a21.8,21.8,0,0,0-12.22-2,53.79,53.79,0,0,0-16.07,4.42v-.34L270,262.19l-16.08-9.29h0L243,259.23l-14.75,8.58h0v19c-21.78,15.85-35.39,36.58-35.39,59,0,10.21,2.76,16,7.2,18.95h0l.21.12c.38.24.78.46,1.18.66l13.45,7.58a9.87,9.87,0,0,0-.81-6.06,75.91,75.91,0,0,0,12.59-2.75c16.35-4.95,30.86-12.71,30.86-.59a15,15,0,0,1-1,5.32c9.92-3.24,17.06-4.51,17.06,4,0,7.54-5.68,14.27-14.07,19.16-13.4,7.78-18.6,1.45-19.75-4.75h0l-2.83-1.64-13.25-7.66L191,405.78l16.07,9.28a27.67,27.67,0,0,0,2.47,6.83c6.28.1,13.48-2,20.73-5.13v7.68L255.7,421V402c22-16.23,37.21-38.1,37.21-60.95a31,31,0,0,0-1.82-11.46C283.81,329.75,275.3,332.4,267.7,334.82Z" style="fill:#433B87"></path><path d="M267.7,334.82c-17.26,5.68-25.2,8.23-25.2-1.13a14.48,14.48,0,0,1,1.19-5.6c-11.78,3.64-17.26,4.1-17.26-3.68,0-5.72,3.86-12.77,14.5-19,11.37-6.6,17.72-5.05,19.3,2.25l31.1-26.52c-.13-.4-.29-.76-.44-1.15a19.59,19.59,0,0,0,5.52-2.12l-12.82-7.62c-.4-.26-.81-.5-1.23-.73l-.19-.11h0a21.8,21.8,0,0,0-12.22-2,53.79,53.79,0,0,0-16.07,4.42v-.34L270,262.19l-16.08-9.29h0L243,259.23l-14.75,8.58h0v19c-21.78,15.85-35.39,36.58-35.39,59,0,10.21,2.76,16,7.2,18.95h0l.21.12c.38.24.78.46,1.18.66l13.45,7.58a9.87,9.87,0,0,0-.81-6.06,75.91,75.91,0,0,0,12.59-2.75c16.35-4.95,30.86-12.71,30.86-.59a15,15,0,0,1-1,5.32c9.92-3.24,17.06-4.51,17.06,4,0,7.54-5.68,14.27-14.07,19.16-13.4,7.78-18.6,1.45-19.75-4.75h0l-2.83-1.64-13.25-7.66L191,405.78l16.07,9.28a27.67,27.67,0,0,0,2.47,6.83c6.28.1,13.48-2,20.73-5.13v7.68L255.7,421V402c22-16.23,37.21-38.1,37.21-60.95a31,31,0,0,0-1.82-11.46C283.81,329.75,275.3,332.4,267.7,334.82Z" style="fill:#fff;opacity:0.4"></path><path d="M291.09,329.59c-7.28.16-15.79,2.81-23.39,5.23-17.26,5.68-25.2,8.23-25.2-1.13a14.48,14.48,0,0,1,1.19-5.6c1.84-4.37,5.95-9.07,13.34-13.36,11.34-6.59,17.69-5,19.28,2.27l31.09-26.54c-3-9-9-13.64-18-13.83-5.4-.14-11.9,1.36-19.4,4.53v-19l-16.07,9.34-9.56,5.56v19c-21.79,15.88-35.41,36.6-35.41,59a32.78,32.78,0,0,0,1.94,12.21c4.81,12,18,10.37,31.87,6.29,4.87-1.46,9.6-3.18,13.81-4.55,9.92-3.24,17.06-4.51,17.06,4,0,7.54-5.68,14.27-14.07,19.16-13.4,7.78-18.61,1.45-19.75-4.75l-32.68,27.67a27.67,27.67,0,0,0,2.47,6.83c4.26,8,11.86,10.17,20.73,9a61.75,61.75,0,0,0,16.07-4.83v19l25.41-14.67V411.28c22-16.21,37.21-38.08,37.21-60.94C309,333.89,301.19,329.36,291.09,329.59Z" style="fill:#433B87"></path><g style="opacity:0.25"><path d="M291.09,329.59c-7.28.16-15.79,2.81-23.39,5.23-17.26,5.68-25.2,8.23-25.2-1.13a14.48,14.48,0,0,1,1.19-5.6c1.84-4.37,5.95-9.07,13.34-13.36,11.34-6.59,17.69-5,19.28,2.27l31.09-26.54c-3-9-9-13.64-18-13.83-5.4-.14-11.9,1.36-19.4,4.53v-19l-16.07,9.34-9.56,5.56v19c-21.79,15.88-35.41,36.6-35.41,59a32.78,32.78,0,0,0,1.94,12.21c4.81,12,18,10.37,31.87,6.29,4.87-1.46,9.6-3.18,13.81-4.55,9.92-3.24,17.06-4.51,17.06,4,0,7.54-5.68,14.27-14.07,19.16-13.4,7.78-18.61,1.45-19.75-4.75l-32.68,27.67a27.67,27.67,0,0,0,2.47,6.83c4.26,8,11.86,10.17,20.73,9a61.75,61.75,0,0,0,16.07-4.83v19l25.41-14.67V411.28c22-16.21,37.21-38.08,37.21-60.94C309,333.89,301.19,329.36,291.09,329.59Z" style="fill:#fff"></path></g><g style="opacity:0.5"><path d="M271.77,411.28c3.4-2.8,6.82-5.56,9.94-8.67,1.62-1.47,3.1-3.09,4.65-4.64.74-.8,1.46-1.63,2.19-2.45s1.46-1.63,2.13-2.49a97.45,97.45,0,0,0,7.68-10.62,76.55,76.55,0,0,0,5.83-11.67,62.24,62.24,0,0,0,3.48-12.54l.41-3.23c.12-1.08.12-2.17.19-3.26,0-.54.07-1.08.06-1.63l0-1.62c0-1.09-.12-2.16-.2-3.25a24.34,24.34,0,0,0-1.45-6.27,14.43,14.43,0,0,0-3.48-5.31,13.44,13.44,0,0,0-5.58-3.14,24.79,24.79,0,0,0-6.49-.9,22.58,22.58,0,0,1,6.6.51,14.12,14.12,0,0,1,6,3,15.28,15.28,0,0,1,3.87,5.5,25.37,25.37,0,0,1,1.72,6.5c.12,1.11.3,2.22.31,3.34a31,31,0,0,1,0,3.34c-.06,1.11,0,2.23-.16,3.34l-.39,3.32a63.19,63.19,0,0,1-3.43,12.89,76.9,76.9,0,0,1-6.08,11.84c-.56,1-1.23,1.85-1.84,2.78s-1.24,1.83-1.93,2.7l-2,2.65-2.17,2.51A105.94,105.94,0,0,1,271.77,411.28Z" style="fill:#fff"></path></g><g style="opacity:0.5"><path d="M244.32,296.06l-4,3.34c-1.3,1.17-2.63,2.3-3.9,3.49-2.55,2.37-5,4.8-7.34,7.41a89.22,89.22,0,0,0-12,16.87,66.7,66.7,0,0,0-6.84,19.47c-.14.86-.24,1.72-.36,2.57a25.11,25.11,0,0,0-.28,2.58c-.09,1.73-.24,3.47-.19,5.2a31.74,31.74,0,0,0,1.53,10.27A30.13,30.13,0,0,1,208.57,357c-.13-1.76,0-3.52,0-5.28a25.82,25.82,0,0,1,.18-2.64c.09-.88.15-1.76.26-2.63a61.24,61.24,0,0,1,6.66-20,79,79,0,0,1,12.54-16.95,104.35,104.35,0,0,1,7.7-7.17c1.35-1.12,2.76-2.16,4.14-3.24S242.88,297.06,244.32,296.06Z" style="fill:#fff"></path></g><polygon points="244.31 296.07 228.23 286.78 228.23 267.81 244.31 277.1 244.31 296.07" style="fill:#433B87"></polygon></g></g><g id="freepik--character-2--inject-144"><g id="freepik--Character--inject-144"><path d="M355.19,277.53c8.26,1.35,21.52.84,36.08,3.46,4.8.86,10.08,6.12,12.13,9a32.62,32.62,0,0,1,4.46,9.46s3.42,5.81,4.57,5.18,5.07-5.59,6.67-10.5-.54-8.56-5.87-14.32-12.38-13.26-12.38-13.26a7.47,7.47,0,0,1-2.44.56c-2.65.18-3.06.14-10.64-2.54-10.59-3.74-14.66-5.77-18.61-5.77,0,0,18.13-12.41,24-16.37,7.38-5,17.66-13.08,17.06-22.87l-43.53.73s-8.56,12.14-16.65,23.59c-8.87,12.57-13.55,19.3-9.34,26.76C342.75,274.36,348,276.36,355.19,277.53Z" style="fill:#ffbda7"></path><path d="M410.78,218.37c.21,5.88,1.54,8.38-8,17.81s-32.06,22.26-32.06,22.26,1.32-.42,7.85,2.05,10,3.53,10,3.53.93,7.87-.69,10.9a23.55,23.55,0,0,1-4,5.27s-24.48-.83-30.29-2-13-3.64-14.69-8.54-.21-10.24,3.54-17.47c6.84-13.18,24.51-33.09,24.51-33.09Z" style="fill:#37474f"></path><path d="M374.06,259c-2.71-.76-3.39-.56-3.39-.56-4.94,2.86-8.46,4.49-8.46,4.49A25,25,0,0,0,374.06,259Z" style="fill:#263238"></path><path d="M410.2,268.07c1.37,1.19,2.32,3.55,4.37,5.56a49.23,49.23,0,0,0,7.59,6.19l3.79,2.55-.69,1-6.9-4.64c-2.11-1.41-5.95-2.85-6.85-2C411.51,276.76,406.85,273.05,410.2,268.07Z" style="fill:#433B87"></path><path d="M410.2,268.07c1.37,1.19,2.32,3.55,4.37,5.56a49.23,49.23,0,0,0,7.59,6.19l3.79,2.55-.69,1-6.9-4.64c-2.11-1.41-5.95-2.85-6.85-2C411.51,276.76,406.85,273.05,410.2,268.07Z" style="opacity:0.30000000000000004"></path><path d="M398.56,266.88c3.18-.66,4.85-2.13,8.06-1.12a10.11,10.11,0,0,1,4.13,2.92,11,11,0,0,1,.41,3.49c-.06,2.41-.36,2.92.92,4.95s1.56,2.54,4.78,5.19A10.27,10.27,0,0,1,421,290.9a31.78,31.78,0,0,1-2.63,11.93c-2.3,5.93-7.05,7.83-8.18,4.62-1.59-4.54-1.81-6.19-2.33-8,0,0,.1-1.86,2.43-4.22,3.14-3.16,4.07-3.78,4.11-5.74.06-2.44-1.27-5.58-7.65-12.16C399.63,270,398.56,266.88,398.56,266.88Z" style="fill:#433B87"></path><path d="M426.74,297.75a241,241,0,0,0-18-23.12c-3.86-4.49-5.4-6.3-9.59-16.72-5.39-13.38-10.36-27-10.36-27a127.13,127.13,0,0,1-12.28-5.09c-7.69-3.68-13.62-14-15.17-17.37,0,0,6.17,2.48,16.9-5.43,11-8.1,11.48-11.62,11.48-11.62a89.12,89.12,0,0,1,11.57,4.75c3,1.4,9.43,3.74,13.2,11.73,1.51,3.19,3.16,6.71,4.49,18.26,1.71,15,2.81,22.91,3.92,31.37,6.19,5.48,9.4,9.73,11.61,17.54a123.75,123.75,0,0,0,6.93,18.26,6.76,6.76,0,0,0,3,3.37s1.83,9.7,3.34,17.76,2.72,12.32-1.43,15.78S431,337.08,429.63,337s1.41-7.66,1.41-7.66a33.82,33.82,0,0,0,1.32-10.85C432.17,314.76,433.38,307.69,426.74,297.75Z" style="fill:#ffbda7"></path><path d="M390.39,190.82c7.3,2.5,15.65,5.12,21.41,11s6.79,12,7.93,21.27,3.66,33.53,3.66,33.53a46.39,46.39,0,0,1,6.88,7.49c2.82,4,6.5,18.37,6.5,18.37s-1.33,4.13-6.62,7.31-7.53,2.53-7.53,2.53S414,281.78,408,275s-6.47-8.92-9.64-16.35-9.94-25.76-9.94-25.76S375,227.66,371,223.71s-11.18-16.25-11.18-16.25Z" style="fill:#455a64"></path><path d="M452,304.23c.44,1.85-.17,4.43.35,7.39A52.57,52.57,0,0,0,455,321.5l1.69,4.46-1.21.46-3.08-8.13c-.93-2.48-2.17-4.15-3.46-4C449,314.32,446.1,306.45,452,304.23Z" style="fill:#433B87"></path><path d="M452,304.23c.44,1.85-.17,4.43.35,7.39A52.57,52.57,0,0,0,455,321.5l1.69,4.46-1.21.46-3.08-8.13c-.93-2.48-2.17-4.15-3.46-4C449,314.32,446.1,306.45,452,304.23Z" style="opacity:0.30000000000000004"></path><path d="M443.62,295.69c1.53,1.79,4.94,2.49,7.07,5.3a7.12,7.12,0,0,1,1.38,4.1c-.59,1.36-1.09,2-1.55,2.91a10.69,10.69,0,0,0-1.51,5,79.29,79.29,0,0,0,.61,10.88c.41,3.57.83,5.67-1.41,8.32-1.75,2.07-8.16,5.38-12.94,6.35-8.33,1.68-11,0-8.85-2.89s4.34-6.36,4.87-7.13a27.61,27.61,0,0,1,5.74-.18c4,.25,5.89,1.88,8.9-1.27,2.74-2.86,2.53-10-.93-18.71C441.07,298.39,443.62,295.69,443.62,295.69Z" style="fill:#433B87"></path><g id="freepik--Top--inject-144"><path d="M267.88,196.13c-1.11.26-.84,1.32.13,1.75,2.3,1,5-.41,6.68-.32.41.07,5.68,1.68,6.27,2.66-1.26,0-5.23-.19-6.48-.09-.36,0-1.32.28-4.23,1.07a4.27,4.27,0,0,0-1.47.54c-.28.25-.28,1.09.63,1.49,1.63.7,3.53-.26,5.31-.37.85-.08,3.58-.17,4.95,1-2.51.41-3.9,1.17-7.15,3.09-.38.23-.35.47-.21.72a1.56,1.56,0,0,0,1.24.67c1.19,0,2.44-.8,4-1.31a10.81,10.81,0,0,1,5.12-.1,4.57,4.57,0,0,1,1.75.72c.66.45,1.2,1.07,1.81,1.58a8,8,0,0,0,8.9.81,1.15,1.15,0,0,0,.47-.4,1.18,1.18,0,0,0-.16-1.05c-1.67-3.19-4.67-5.43-7.28-7.92-.86-.82-7.43-6.86-7.71-7-.12-.07-8.9,1.56-9.16,1.65C270.52,195.51,269,195.87,267.88,196.13Z" style="fill:#f0997a"></path><path d="M336.76,180.89C335,183.28,320.93,202,320.93,202s-16.08-.11-20.08-.49c-5.51-.52-8.31-3-10.79-5.13-3.56-3.08-4.28-3-6.7-3.32-1.5-.21-5.09-1.1-5.22-1.13a4,4,0,0,0-1.57.14c-.28,0-1.43.29-1.71.35-1.59.34-2.56.64-4.16,1a7.2,7.2,0,0,0-1.44.42.55.55,0,0,0-.26.19.54.54,0,0,0,.13.57,3.52,3.52,0,0,0,2.58,1.27,12.18,12.18,0,0,0,3-.26c.61-.09.93-.19,2.15-.38a2.84,2.84,0,0,1,1.44.24,32.94,32.94,0,0,1,6.47,3,11.69,11.69,0,0,1-6.21-.41c-1.86-.67-2.26,1.52-.12,3,2.46,1.7,4.67,1.06,7.88,3.38s2.11,6.59,7.36,7.22a62.42,62.42,0,0,1,8.61,1c4.23.88,17.83,4.94,21,5.35,6.87.9,7.05.6,15.78-10.1,12.32-15.11,14.27-18.14,14.27-18.14l-5.08-21.31C344.18,171.43,342.83,172.87,336.76,180.89Z" style="fill:#ffbda7"></path><path d="M343.65,172a67.85,67.85,0,0,0-8.15,9.66c-7.09,9.36-14.68,20-14.68,20l-10.64.13a10.37,10.37,0,0,1,1.93,6.42,7.72,7.72,0,0,1-3.71,6.34s5.17,1.46,11.28,3,8.32,1.35,9.88.89,2.85-2.29,5.65-5.5,14.72-18.66,14.72-18.66Z" style="fill:#455a64"></path><path d="M284.72,198.43a14.44,14.44,0,0,1,3.73.29c.47.14-.13-.84-2.06-1.25s-3.09.27-3.65-.07Z" style="fill:#f0997a"></path><path d="M369.73,127c1.93,1.15,3.2,2.86,5.63,4.47a7,7,0,0,0,6.69.7,7.72,7.72,0,0,0,4.62-5.4c1.27,3.14.47,5.48-1.3,7.18a10.39,10.39,0,0,0,5.86-7.12c.29-1.26.37-2.56.59-3.84.77-4.51,2.47-6.39,7.18-7.23-2.65,1.36-3.56,3.55-3.49,6.52s1.18,6.91.69,9.84a12.06,12.06,0,0,1-3.71,6.9,16.55,16.55,0,0,1-7.65,4.2c2.29.61,4.55-.16,6.72-1.09-1.47,3.07-6.61,5.21-10.59,5.1-4.78-.13-8.7-3.79-11.59-7.61a31.64,31.64,0,0,0-3.4-4.16,7.6,7.6,0,0,0-4.77-2.23c-2.14-.07-3,1.16-4.28,2.47-1.28-.72-3.13-1.65-3.19-2.88-.1-2.1,2.54-5.27,4.1-6.1A12.13,12.13,0,0,1,369.73,127Z" style="fill:#263238"></path><path d="M355.2,127.84c.53-.79,3.62-1.07,5.93.68s4.1,4.64,2.28,6.82S351.78,130.82,355.2,127.84Z" style="fill:#433B87"></path><path d="M365,157.34a23.24,23.24,0,0,0,6.64-2.13c2.1,1.53,10,6.63,12.64,12.7S390,187.52,392,189.42s10.84,5.2,17.94,9.78c0,0-.94,6.38-3.85,8.58,0,0-4.73-3.53-7.82-5.92,3.69,5.68,5.58,8.15,5.58,8.15s2,11.94-21.63,16.65a34.83,34.83,0,0,1-20.05-2.13s2.38-9.83-2.36-14.91c-3.6-2.33-9.41-8.8-9.41-8.8s-7.44-3.65-8.56-9.63c-1.5-8,1.12-16.42,1.77-19.23,1-1.43,5.66-6,5.66-6Z" style="fill:#37474f"></path><path d="M362.4,158.61c.82,3.15,0,4.4-1.51,9.55s-7,19.79-5.89,24.46c-2.36-3.32-5.54-7.77-6.63-12.47s-1.5-11.44.76-16.07l12.32-6.62Z" style="fill:#433B87"></path><g id="freepik--Head--inject-144"><g id="freepik--head--inject-144"><path d="M331.88,143.86c-5.84-7.84.65-18,14.59-18.7,3.9-.19,12.06,1,12.84,6.5,5.15,1.35,7.23,7.55,4.43,14.94-2,5.37-3.7,9-4.16,10.86Z" style="fill:#263238"></path><path d="M361.45,144.32c-3.33-1.27-4.81,2.22-4.81,2.22-2.06,1.42-3.48-2.78-4-4-.92-2.2-1.83-5.35-4.35-6.16-1.87-.6-3.92.18-5.56,1.26a4.27,4.27,0,0,1-3.35.61c-1-.23-1.42-1.79-2.36-2.24-2.71-1.3-4.57,3.15-4.83,5.26a42.38,42.38,0,0,0-.23,8.47c.63,9.46,4.3,13.62,5.92,14.46,2.54,1.31,4.24,1.14,7.4.73l3.43,4.78a34.6,34.6,0,0,0,4.47,11.78c1.93-6.12,7.6-13.54,9.11-21.32L358.1,154c1.48,1.1,3.67.21,4.63-1.28C364.71,149.64,364.64,145.54,361.45,144.32Z" style="fill:#ffbda7"></path><path d="M345.17,155.29l-4.35,1.58a2.28,2.28,0,0,0,2.92,1.47A2.42,2.42,0,0,0,345.17,155.29Z" style="fill:#b16668"></path><path d="M344.93,156.32a2.56,2.56,0,0,0-2.47,2.08,2.09,2.09,0,0,0,1.28-.06,2.39,2.39,0,0,0,1.54-2C345.16,156.34,345.05,156.32,344.93,156.32Z" style="fill:#f28f8f"></path><path d="M345.28,164.89c3-.61,10.73-3.95,11.79-11a11.28,11.28,0,0,1-3.31,8.68,16.87,16.87,0,0,1-7.37,3.86Z" style="fill:#f0997a"></path></g><path d="M333.78,142.72l3.09-1.14a1.6,1.6,0,0,0-2.07-1A1.73,1.73,0,0,0,333.78,142.72Z" style="fill:#263238"></path><path d="M348.55,142.89l-3.16-.92a1.57,1.57,0,0,1,2-1.15A1.72,1.72,0,0,1,348.55,142.89Z" style="fill:#263238"></path><path d="M334.19,147.35a1.34,1.34,0,1,0,1.39-1.35A1.37,1.37,0,0,0,334.19,147.35Z" style="fill:#263238"></path><path d="M344.32,147.64a1.35,1.35,0,0,0,1.29,1.43,1.37,1.37,0,0,0,1.38-1.35,1.34,1.34,0,1,0-2.67-.08Z" style="fill:#263238"></path><path d="M328.19,144.45a2.87,2.87,0,0,0,.71,1.38,1.34,1.34,0,0,1,.28.49,25.81,25.81,0,0,0,1.09,3.72,4.51,4.51,0,0,0,4.18,2.67,5.75,5.75,0,0,0,1.36-.1l.1,0a3.81,3.81,0,0,0,1.08-.43l.07,0,.09-.06.11-.08.11-.08.11-.1.11-.1a2.09,2.09,0,0,0,.2-.22,4.38,4.38,0,0,0,.81-1.4c.5-1.29.23-3.11,1.17-3.31l.12,0H340c1.3,0,1.27,2,2.09,3.42A5.25,5.25,0,0,0,347,153h.36l.29,0a3.39,3.39,0,0,0,.67-.09l.21,0,.2-.06.13,0a3.62,3.62,0,0,0,.74-.35l.24-.17a3,3,0,0,0,.42-.38,4.3,4.3,0,0,0,.77-1.3,22.06,22.06,0,0,0,.53-3.68,1.52,1.52,0,0,1,.19-.53,2.38,2.38,0,0,0,.55-1.32,1.23,1.23,0,0,0-.86-1.17l-.69-.1a20.74,20.74,0,0,0-6.83,0c-2.13.57-2.84,1.25-4.05,1.23s-1.91-.76-4-1.45a18.72,18.72,0,0,0-6.42-.37,6.12,6.12,0,0,0-.63.06C328.46,143.33,328.11,143.86,328.19,144.45Zm14.35,1.46a1.74,1.74,0,0,1,.58-.49l.11-.06.06,0,.3-.14.27-.11a7.48,7.48,0,0,1,.91-.28l.36-.08a7.65,7.65,0,0,1,.94-.15h.23a5.8,5.8,0,0,1,3.91.78c.51.44.41,2.36.27,3.33v.08s0,0,0,.07l-.06.39-.06.25h0c0,.13-.07.26-.11.4h0a.69.69,0,0,0-.05.13l0,.09a.36.36,0,0,0,0,.09l-.05.12-.06.12-.08.14a1,1,0,0,1-.08.14A3,3,0,0,1,347,152a4.3,4.3,0,0,1-3.16-1.19h0a4.68,4.68,0,0,1-1.13-2C342.39,147.78,342.17,146.5,342.54,145.91ZM330.2,144.8a1.66,1.66,0,0,1,.49-.32l0,0,.22-.08.13,0,.11,0,.08,0h0l.11,0,.48-.07.26,0H333a9,9,0,0,1,1,.09,6.43,6.43,0,0,1,3.54,1.54,4.87,4.87,0,0,1,.3,3,3.72,3.72,0,0,1-.14.73l0,.05a.24.24,0,0,1,0,.08.43.43,0,0,0,0,.05l0,.08-.07.18-.07.15,0,.06-.05.1-.05.09h0a3,3,0,0,1-3,1.39,3.92,3.92,0,0,1-1.59-.39,4.87,4.87,0,0,1-2.23-3.18C330.19,147.15,329.78,145.22,330.2,144.8Z" style="fill:#37474f"></path><path d="M351.56,144.06l6.37.78a5.46,5.46,0,0,0-1.17,1.45l-5.16-.64Z" style="fill:#37474f"></path><path d="M340.55,146.91l-.48,7.75-4.61-1.38,4.63-6.53A1,1,0,0,1,340.55,146.91Z" style="fill:#f0997a"></path><path d="M358.37,152.19a1.21,1.21,0,1,0,1.15-1.25A1.21,1.21,0,0,0,358.37,152.19Z" style="fill:#fafafa"></path></g><path d="M359.85,156.55l.87,1.28a59.64,59.64,0,0,1-2.23,12.5c-2.3,7.83-4.5,14-4.19,18.52a44.48,44.48,0,0,0,2,9.48A23.45,23.45,0,0,1,358.37,184c2.19-4.6,6.9-9.59,7.11-11.94s-3-3.6-3-3.6a27.21,27.21,0,0,0,4.37-5.43c1.4-2.6-.18-6-.18-6C362.89,157.19,361,156,359.85,156.55Z" style="fill:#263238"></path><path d="M348.71,169.67a23.62,23.62,0,0,0,.62,8.05c1.43,5.29,6.37,16.5,6.37,16.5s-4.89-6.82-7.12-9.64-3.77-5.08-1.9-10c-1.56-1.06-1.48-1.19-1.59-4.3a19.77,19.77,0,0,1,.39-5.1Z" style="fill:#263238"></path><g id="freepik--Briefcase--inject-144"><path d="M485.85,228.49,462.07,195a3.38,3.38,0,0,0-2.42-1.12l-1.39,0a1.28,1.28,0,0,0-1,.33h0l-33.14,37.47,28.66,35,33.12-37.45h0A.59.59,0,0,0,485.85,228.49Z" style="fill:#37474f"></path><path d="M444.85,266.81l7,.16c.91,0,1.31-.45.89-1.05L429,232.47a3.38,3.38,0,0,0-2.42-1.12l-1.39,0c-.9,0-1.37.48-1,1.11l18.47,33.19A2.81,2.81,0,0,0,444.85,266.81Z" style="fill:#263238"></path><path d="M460.51,253.49a.61.61,0,0,1-.71-.15l-11.46-15.81a.39.39,0,0,1,.23-.58.63.63,0,0,1,.75.13l11.45,15.81c.15.2,0,.47-.23.59Z" style="fill:#433B87"></path><path d="M475.68,236.66a.64.64,0,0,1-.72-.15L463.51,220.7c-.15-.2,0-.47.23-.59a.62.62,0,0,1,.74.14l11.46,15.81a.39.39,0,0,1-.23.58Z" style="fill:#433B87"></path><path d="M444,246.73c-1.27,1.44-4,1.43-5,0l-10-14.26a3.38,3.38,0,0,0-2.42-1.12l-1.38,0a1.32,1.32,0,0,0-1,.27l33.05-37.37h0a1.18,1.18,0,0,1,1-.33l1.4,0a3.35,3.35,0,0,1,2.41,1.13L472,209.17a5.12,5.12,0,0,1-.59,6.54Z" style="fill:#455a64"></path><polygon points="455.19 232 459.12 227.55 460.69 229.66 456.75 234.12 455.19 232" style="fill:#433B87"></polygon></g><path d="M446,207c-2.75-2.86-7-7.49-8.21-7.11l.1-1.8s1.1-.6,3.81,1.8c2.22,2,5.71,5.52,5.71,5.52Z" style="fill:#37474f"></path><path d="M434,211.84a5.84,5.84,0,0,1-4.38-1.37,6.07,6.07,0,0,1-.9-3.8c.31-.9,1.74-4.68,2.68-4.8s3.74,3.95,3.72,5.95A9.75,9.75,0,0,1,434,211.84Z" style="fill:#f0997a"></path><path d="M441.75,201.73a49.22,49.22,0,0,0-1.91-6.73,45,45,0,0,0-2.74-5.52c-2.4-4.48-9-18.09-13.36-24.71l-9.4,12.29s11.51,13.26,13,15.61c.87,1.39,0,3.89-.1,5.5a17.72,17.72,0,0,0,.43,4.53,27.81,27.81,0,0,1,.44,4.9,1.55,1.55,0,0,0,.07.61,1,1,0,0,0,1.32.42,2.24,2.24,0,0,0,1-1.12,9.93,9.93,0,0,0,.8-3.61c0-.18.05-.39.22-.47a.44.44,0,0,1,.45.12,5.31,5.31,0,0,1,.84,1.24,8.2,8.2,0,0,1,.52,3.71,3.24,3.24,0,0,1-1.8,3.19c.21.07.89.32,1.13.36a6.14,6.14,0,0,0,1.28.16,3.11,3.11,0,0,0,2.08-1c.76-.73,1.07-1.89,1.95-2.47a7.79,7.79,0,0,1,.76-.39A2.59,2.59,0,0,0,440,207a6.93,6.93,0,0,1,.45-1.59,4.4,4.4,0,0,1,.6-.62A3.25,3.25,0,0,0,441.75,201.73Z" style="fill:#ffbda7"></path><path d="M430.07,206c-.44,1.76.32,4.53,1.61,6.43s4.4,5.76,4.4,5.76l1.38-1.56s-1.08-1.38-3.32-4.3c-2.06-2.69-2.29-4.57-2.19-5.49a3.51,3.51,0,0,1,.84-2s-.48-1.66-1.16-1.44C430.94,203.76,430.51,204.21,430.07,206Z" style="fill:#37474f"></path><path d="M371.66,155.21c3.55-1.64,4.69-2.12,14.35-.55s21.76,4,29.59,6,7.95,2.89,10.75,8c2.44,4.45,4.18,8,4.18,8s-.6,2-5,4.57c-4.07,2.42-6.19,1.59-6.19,1.59l-5.57-5.77s-25-2.74-29.51-3.29S370.81,169.92,371.66,155.21Z" style="fill:#455a64"></path></g></g></g><g id="freepik--character-1--inject-144"><g id="freepik--character--inject-144"><g id="freepik--Bottom--inject-144"><g id="freepik--Leg--inject-144"><polygon points="41.28 308.65 46.63 309.91 47.17 306.08 42.9 306.77 41.28 308.65"></polygon><path d="M42,298s-2,2.67-2.66,3.52,1.28,6.07,1.91,7.14l1.62-1.88a19.22,19.22,0,0,1-.08,4.75c-.12,1.73-.79,4.71.11,7.64,1.33,4.36,5.09,8.64,9.64,11.93s8,3.94,10,3.82,3.21-1,3.68-2.43S42,298,42,298Z" style="fill:#263238"></path><path d="M60.86,296.86l1.25-1.55c.88.56-.69,2.93-.81,5.82a50,50,0,0,0,.94,12.8c1.84,7.48,4.25,13,5.06,16.37,1.08,4.48-6.64,5.29-14-.24-3.64-2.74-9.08-9.14-9.47-12.64s.78-7.75.36-10.39-2.57-6.44-2.19-9c.2-1.43,1.8-3.4,3.92-4.93s3.71-4.09,5-2.4l-.43.9c-.13,1.16-.11,2.05,2.6,4.61C54.44,297.44,58.45,299.88,60.86,296.86Z" style="fill:#455a64"></path><path d="M55.05,297.14c1.54.85,3.42,1.42,4.91.52,0,0,0,0,.06,0a4.46,4.46,0,0,0-1.1,3.76c.29,2.51,1.37,19.5,1.37,19.5s-1.8-14.63-2.16-17.4c-.55-4.1-1.06-4.89-3.09-6.35Z" style="opacity:0.15"></path><path d="M55,301.39a.56.56,0,0,1-.79.07.57.57,0,0,1-.06-.79.56.56,0,0,1,.79-.07A.57.57,0,0,1,55,301.39Z" style="opacity:0.15"></path><path d="M55.54,305.38a.56.56,0,1,1-.07-.79A.56.56,0,0,1,55.54,305.38Z" style="opacity:0.15"></path><path d="M56.12,309.37a.56.56,0,1,1-.07-.79A.56.56,0,0,1,56.12,309.37Z" style="opacity:0.15"></path><path d="M56.7,313.36a.56.56,0,0,1-.79.07.57.57,0,0,1-.06-.79.56.56,0,0,1,.79-.07A.57.57,0,0,1,56.7,313.36Z" style="opacity:0.15"></path><path d="M57.28,317.35a.55.55,0,0,1-.78.07.56.56,0,1,1,.72-.86A.57.57,0,0,1,57.28,317.35Z" style="opacity:0.15"></path><path d="M54.38,301.21a.22.22,0,0,1-.08-.14.23.23,0,0,1,.18-.26,9.22,9.22,0,0,1,6.66,1.44h0a.23.23,0,0,1,0,.31.23.23,0,0,1-.32,0,9,9,0,0,0-6.3-1.36A.21.21,0,0,1,54.38,301.21Z" style="fill:#263238"></path><path d="M55,305.19a.22.22,0,0,1-.08-.14.23.23,0,0,1,.18-.26,9.19,9.19,0,0,1,6.66,1.45h0a.23.23,0,0,1,0,.31.23.23,0,0,1-.32,0,9,9,0,0,0-6.3-1.36A.21.21,0,0,1,55,305.19Z" style="fill:#263238"></path><path d="M55.55,309.19a.25.25,0,0,1-.08-.14.23.23,0,0,1,.18-.26,9.22,9.22,0,0,1,6.66,1.44h0a.23.23,0,0,1,0,.32.21.21,0,0,1-.31,0,8.92,8.92,0,0,0-6.31-1.36A.23.23,0,0,1,55.55,309.19Z" style="fill:#263238"></path><path d="M56.13,313.18a.25.25,0,0,1-.08-.14.23.23,0,0,1,.18-.26,9.22,9.22,0,0,1,6.66,1.44h0a.25.25,0,0,1,0,.32.23.23,0,0,1-.32,0,8.92,8.92,0,0,0-6.31-1.36A.28.28,0,0,1,56.13,313.18Z" style="fill:#263238"></path><path d="M56.72,317.17a.25.25,0,0,1-.08-.14.21.21,0,0,1,.18-.26,9.23,9.23,0,0,1,6.66,1.44h0a.25.25,0,0,1,0,.32.23.23,0,0,1-.32,0,8.9,8.9,0,0,0-6.3-1.36A.27.27,0,0,1,56.72,317.17Z" style="fill:#263238"></path><path d="M110.51,249.77c-6.75,10-8.15,11.77-15.76,19.73-5.45,5.7-32.33,34.91-32.33,34.91C49.22,305.4,49,289.12,49,289.12s11.95-17.4,14.95-23C67,260.3,72.52,252,79.35,247.57c3.73-2.15,5.1-8.92,6.72-15.64s6.26-26.64,6.26-26.64L134,219.93Z" style="fill:#263238"></path></g><g id="freepik--leg--inject-144"><path d="M72.92,249.45c-2.92-1.43-4.63-1.67-5.81-1.26s-5.54,4-5.71,8.24l1,1.76a6.89,6.89,0,0,1-2.33,2c-1.53.81-4.75,1.61-7.41,5.37s-3.45,6.08-4.16,10.56-.36,10.35,2.62,11.27Z" style="fill:#263238"></path><path d="M81.5,255.52c-.14-1-.86-1.31-1.76-2.11s-3.36-3.62-6.82-4c-4.13.68-6.72,3.51-8.87,8.13s-5.71,3.34-9.25,7.5a20.07,20.07,0,0,0-5.28,11.76c-.71,5.25-.22,11.29,3.63,11.29,3.36,0,4.85-2.47,10.92-8.92a33.15,33.15,0,0,1,9.59-7.43c2.87-1.25,3.93-1.11,3.93-1.11Z" style="fill:#455a64"></path><path d="M60.36,281.42s2.72-4.13,11.77-10.7a18,18,0,0,0,4.4-4.54l.27,4.1s-2.1,0-5.36,2A67,67,0,0,0,60.36,281.42Z" style="opacity:0.15"></path><path d="M141.62,277.43c1.35-7.13-1.41-15.62-3.59-23.71a230.76,230.76,0,0,0-10.58-30S99,188.52,90.38,202.13c-8.12,12.86-2.15,28.9.84,33.29,3.16,4.63,13.07,16.4,18.71,23.25-4.38-2.07-6.69-2.4-14.54-3-9.41-.69-12.57-1.06-12.57-1.06-4.26-.41-10.06,9.79-6.41,18,0,0,35.43,12.25,43,14.41C129.24,289.86,139.74,287.35,141.62,277.43Z" style="fill:#37474f"></path><path d="M95.39,255.7l-1.74-.13a46.24,46.24,0,0,1,13.2,4.06c4,1.91,6.27,3.21,6.27,3.21l-3.19-4.17C105.55,256.6,103.24,256.27,95.39,255.7Z" style="fill:#263238"></path><path d="M59.34,277.87a.56.56,0,0,0-.34-.72.56.56,0,0,0-.38,1.05A.56.56,0,0,0,59.34,277.87Z" style="opacity:0.15"></path><path d="M61.87,275a.56.56,0,0,0-.33-.72.57.57,0,0,0-.72.33.56.56,0,0,0,.34.72A.54.54,0,0,0,61.87,275Z" style="opacity:0.15"></path><path d="M64.82,272.48a.56.56,0,0,0-1-.39.57.57,0,0,0,.34.72A.54.54,0,0,0,64.82,272.48Z" style="opacity:0.15"></path><path d="M68.51,270a.57.57,0,0,0-.29-.74.56.56,0,0,0-.46,1A.57.57,0,0,0,68.51,270Z" style="opacity:0.15"></path><path d="M72.14,268a.56.56,0,1,0-.77.22A.57.57,0,0,0,72.14,268Z" style="opacity:0.15"></path><path d="M58.9,277.47a.22.22,0,0,0-.16,0,.22.22,0,0,0-.14.28c0,.15.34,2.55,3.59,3.94h0a.22.22,0,0,0,.29-.12.24.24,0,0,0-.12-.3C59.3,280,59,277.64,59,277.6A.22.22,0,0,0,58.9,277.47Z" style="fill:#263238"></path><path d="M61.43,274.62a.29.29,0,0,0-.16,0,.23.23,0,0,0-.14.29c0,.15.35,2.55,3.6,3.94h0a.22.22,0,0,0,.29-.12.23.23,0,0,0-.12-.3c-3.06-1.3-3.33-3.63-3.34-3.67A.21.21,0,0,0,61.43,274.62Z" style="fill:#263238"></path><path d="M64.38,272.08a.29.29,0,0,0-.16,0,.22.22,0,0,0-.13.29c0,.15.34,2.55,3.59,3.94h0a.22.22,0,0,0,.29-.12.23.23,0,0,0-.11-.3c-3.07-1.31-3.34-3.63-3.35-3.67A.21.21,0,0,0,64.38,272.08Z" style="fill:#263238"></path><path d="M68.09,269.56a.22.22,0,0,0-.16,0,.21.21,0,0,0-.15.27c0,.16.16,2.57,3.31,4.18h0a.23.23,0,0,0,.3-.1.24.24,0,0,0-.1-.31c-3-1.51-3.08-3.85-3.09-3.89A.24.24,0,0,0,68.09,269.56Z" style="fill:#263238"></path><path d="M71.76,267.56a.2.2,0,0,0-.15,0,.23.23,0,0,0-.19.26c0,.16-.06,2.57,2.94,4.45h0a.23.23,0,0,0,.23-.39c-2.81-1.77-2.72-4.11-2.72-4.15A.19.19,0,0,0,71.76,267.56Z" style="fill:#263238"></path></g></g><g id="freepik--Arm--inject-144"><path d="M226.47,182c1.14-.05,1.18,1,.37,1.71-1.92,1.6-4.93,1-6.48,1.55-.38.17-5,3.17-5.26,4.27,1.21-.32,5-1.62,6.17-1.87.36-.07,1.34-.1,4.35-.16a4.33,4.33,0,0,1,1.55.12c.33.16.57,1-.19,1.59-1.37,1.13-3.46.73-5.18,1.12-.84.16-3.48.83-4.47,2.3,2.52-.3,4,0,7.69,1,.43.12.47.35.4.63a1.55,1.55,0,0,1-1,1c-1.12.37-2.56-.09-4.22-.14a10.75,10.75,0,0,0-4.93,1.32,4.67,4.67,0,0,0-1.47,1.18,20.84,20.84,0,0,0-1.29,2,8,8,0,0,1-8.3,3.24,1.17,1.17,0,0,1-.55-.26,1.14,1.14,0,0,1-.14-1c.71-3.52,3-6.49,4.77-9.6.6-1,5.22-8.61,5.43-8.85s9-1,9.23-1C223.78,182.17,225.38,182.09,226.47,182Z" style="fill:#f28f8f"></path><path d="M224.83,180.34a.6.6,0,0,0-.3-.11,7.52,7.52,0,0,0-1.5,0c-1.62.12-2.63.1-4.25.21l-1.73.13a4.19,4.19,0,0,0-1.54.31c-.12.06-3.3,1.91-4.68,2.52-2.23,1-2.94,1.1-5.49,5-1.78,2.73-3.78,5.87-8.91,7.89-3.72,1.46-21.62,7.06-21.62,7.06l-3.06,17.51c1.51,0,3-.6,5.3-1.6,2.89-1.27,17.32-9.95,21.12-12a61.64,61.64,0,0,1,8-3.37c4.85-2.06,2.62-5.83,5-8.94s4.72-3.11,6.6-5.41c1.64-2,.66-4-.94-2.84a11.61,11.61,0,0,1-5.83,2.12,32.62,32.62,0,0,1,5.37-4.61,2.79,2.79,0,0,1,1.33-.63c1.21-.16,1.55-.15,2.15-.23a12.23,12.23,0,0,0,2.89-.57,3.56,3.56,0,0,0,2.13-1.92C224.94,180.73,225,180.48,224.83,180.34Z" style="fill:#ffa8a7"></path><path d="M211,188.89a14.33,14.33,0,0,0-3.48,1.3c-.41.26-.12-.83,1.62-1.76s3-.6,3.47-1.08Z" style="fill:#f28f8f"></path><path d="M149,166.22c5.19,1.51,7.33,2.47,10.51,7.07s15.33,29.05,15.33,29.05l18.43-4.89s-2.09,1.56-2,5.89c.17,5,2.16,6.84,2.16,6.84s-14.88,9.71-22.39,11.89c-5.13,1.48-8-.9-10.79-5.06S147.67,195,147.67,195Z" style="fill:#37474f"></path><path d="M174.81,202.34c-2.37.27-7.74,1.91-11,6,0-2.63,5.31-7.78,9.9-8.15Z" style="fill:#263238"></path></g><g id="freepik--top--inject-144"><g id="freepik--Chest--inject-144"><path d="M144.86,204.67c3.32-4.41,7.4-9.51,9.53-12.95,2.47-4,3.6-7.53,3.59-13.43,0-4.22-.37-6.94-2.65-9.57-1.55-1.78-3.31-3.39-9.54-7.43-8.27-5.37-14.26-7.38-17.76-9.1-2.06.82-7.29,3.34-7.29,3.34-4,2.46-6.44,2.63-13.39,14.19-3.92,6.51-7.68,14.49-12,22.56-2,3.69-3.83,6.73-6.52,10.86C96,224.29,124.88,230,134,221,136.05,216.69,139.67,211.59,144.86,204.67Z" style="fill:#455a64"></path></g><g id="freepik--head--inject-144"><path d="M138.81,154.63c.11-3.45-3.87-9.73-3.91-17.3,0-6.92,3-10.75,7.61-11.11,1.63-5.11,9.84-5.79,14.88-3.89,4.42,1.44,10.38,3.89,14.48.67a6.48,6.48,0,0,1-2.22,6.32c1.5,0,2.67-1,4.1-1.69.37,3.34-2.07,6-4.1,7.2,2.35,2.4.42,8.9-4.33,8.59C156.29,142.84,147.22,151.29,138.81,154.63Z" style="fill:#263238"></path><path d="M149.33,169.58l4.23-6.12L141.78,150.3l-5.34,7.86c.66,9.5,7.58,13.78,9,16.83C147.19,174.16,149.52,172.27,149.33,169.58Z" style="fill:#ffa8a7"></path><path d="M142.09,150.74a13.29,13.29,0,0,0,.47,7.42c.63,1.84,2.25,5,9.46,7.48l1.54-2.18a30.64,30.64,0,0,1-5-2,10.5,10.5,0,0,1-3.2-2.47C143.07,156.23,142.44,151.78,142.09,150.74Z" style="fill:#f28f8f"></path><path d="M166.18,134.19a12,12,0,0,1-2.19,1.06,15.07,15.07,0,0,1-4.74.89,29.58,29.58,0,0,1-10.05-1.5c.17,2.76-2.07,5.05-3,5.77-.44,5.59-2.76,5-2.71,4.33a8.14,8.14,0,0,0-.27-2.78,3.78,3.78,0,0,0-4.43-2.53,4.1,4.1,0,0,0-2.82,2.64,7.85,7.85,0,0,0-.11,5.91,5.61,5.61,0,0,0,3.12,3.63c2.62,1,3.08-.87,3.08-.87.31,2.25.59,4.73,2,6.95a11.85,11.85,0,0,0,6.59,5,18.75,18.75,0,0,0,9.34.83c2-.52,6-1.77,7.44-13.42C168.47,141.55,167.12,136.17,166.18,134.19Z" style="fill:#ffa8a7"></path><path d="M154.35,145.07a1.48,1.48,0,1,1-1.37-1.64A1.52,1.52,0,0,1,154.35,145.07Z" style="fill:#263238"></path><path d="M156.78,155.4a1.16,1.16,0,1,1-1.07-1.28A1.18,1.18,0,0,1,156.78,155.4Z" style="fill:#b16668"></path><path d="M154.64,140.35l-3.58-.62a1.91,1.91,0,0,1,2.17-1.51A1.78,1.78,0,0,1,154.64,140.35Z" style="fill:#263238"></path><path d="M165.63,140.56l-3.62.55a1.76,1.76,0,0,1,1.47-2.09A1.92,1.92,0,0,1,165.63,140.56Z" style="fill:#263238"></path><path d="M165.62,145.07a1.48,1.48,0,1,1-1.37-1.64A1.52,1.52,0,0,1,165.62,145.07Z" style="fill:#263238"></path><path d="M158,143.94l.73,8.06,5.11-1.38a13.33,13.33,0,0,0-4.48-7.16C157.78,142.62,158,143.94,158,143.94Z" style="fill:#f28f8f"></path></g><g id="freepik--briefcase--inject-144"><path d="M73.41,216.13l-13,33.23c-.63,1.61-2.13,2.1-3.84,2.38l-4.29.65a3.58,3.58,0,0,1-2.93-.52,7.74,7.74,0,0,1-1.57-1.5s0,0-.06-.06l-.15-.18L19.94,215.57a9,9,0,0,1-1.37-8.95l11.8-30.25a2.57,2.57,0,0,1,1.82-1.46l7.31-1.11a2.53,2.53,0,0,1,2.16.84l31.39,39.2a2.33,2.33,0,0,1,.46,1.1A2.46,2.46,0,0,1,73.41,216.13Z" style="fill:#37474f"></path><path d="M73.41,216.13l-13,33.23c-.63,1.61-2.13,2.1-3.84,2.38l-4.29.65a3.58,3.58,0,0,1-2.93-.52,7.74,7.74,0,0,1-1.57-1.5h0c1.14,1.2,2.52.9,3.16-.75L63.19,218.3a3.58,3.58,0,0,0,.16-1.8l10.16-1.56A2.46,2.46,0,0,1,73.41,216.13Z" style="fill:#263238"></path><path d="M63.2,218.3a3.92,3.92,0,0,0-.54-3.48L33,177.78c-1.17-1.47-2.69-1.23-3.37.51l-11,28.33a9,9,0,0,0,1.37,8.95l27.67,34.56c1.18,1.46,2.69,1.23,3.37-.52Z" style="fill:#455a64"></path><path d="M37.13,174.16l31.36,39.5a4.08,4.08,0,0,1,.6,4l-13.34,34.2L55,252l13.47-34.55a3.42,3.42,0,0,0-.5-3.36l-31.6-39.8Z" style="fill:#433B87"></path><path d="M69.32,215.58a4,4,0,0,1-.23,2.09l-13.34,34.2L55,252l13.47-34.55a3.5,3.5,0,0,0,.2-1.75Z" style="opacity:0.2"></path><path d="M68.67,215.68a3.47,3.47,0,0,0-.7-1.61l-31.6-39.8.76-.11,31.36,39.5a4,4,0,0,1,.83,1.92" style="opacity:0.2"></path><path d="M49.89,184l-2,5.14-2.46.38,2.66-6.83a.37.37,0,0,1,.68-.11Z" style="fill:#433B87"></path><path d="M49.89,184l-2,5.14-2.46.38,2.66-6.83a.37.37,0,0,1,.68-.11Z" style="opacity:0.4"></path><path d="M62.05,194.63,58.8,203l-2.35.36-1-1.25,2.67-6.83a1.32,1.32,0,0,0-.18-1.17l-7.6-9.49-1.57-2a.37.37,0,0,0-.68.11l-2.66,6.83-1-1.25L47.66,180l.05-.1a1.3,1.3,0,0,1,.88-.64l1-.15a1.28,1.28,0,0,1,1.1.43l11.18,14A1.29,1.29,0,0,1,62.05,194.63Z" style="fill:#433B87"></path><path d="M59.69,195l-3.24,8.33-1-1.25,2.67-6.83a1.32,1.32,0,0,0-.18-1.17l-7.6-9.49-1.57-2a.37.37,0,0,0-.68.11l-2.66,6.83-1-1.25L47.66,180l.05-.1c.16-.26.42-.26.63,0l11.18,13.95A1.32,1.32,0,0,1,59.69,195Z" style="opacity:0.2"></path></g><path d="M127,152.17c-7.12-1.87-9.33-.18-20.57.66-7.31.55-15.84.87-24.11,2.42C78.37,156,75,156,72,159.48c-5.29,6.2-10.91,13.26-13.91,16.27s-4,4.1-8,6.37a3,3,0,0,0-1,1,10.19,10.19,0,0,0-.89,1.89c-.16.43-.3.86-.43,1.29a2.35,2.35,0,0,0-.14.52,1.1,1.1,0,0,1,0,.4,4.46,4.46,0,0,0-.24,2.23,1.81,1.81,0,0,0,.09.31,2.59,2.59,0,0,0,.73,1,3,3,0,0,1,.59.59c.33.52.16,1.19.2,1.81a2.43,2.43,0,0,0,.88,1.68c.62.52,1.54.76,1.86,1.51.09.22.14.46.21.69.49,1.46,4.22,2.81,4.29,2.76l1.75-4.5a1.16,1.16,0,0,0-.14-1.26L57,192.89c1-1.59,2-2.81,2.43-2.5l2.45,3.07a1.23,1.23,0,0,1,.15,1.23c-.15.37-.37,1-.52,1.36a17.13,17.13,0,0,0,2.08-2.31c2-3.23.86-7.36,2.58-9.47,4-4.88,14-12.7,16.27-14.87l28.34,1.09A26.9,26.9,0,0,0,127,152.17Z" style="fill:#ffa8a7"></path><path d="M128,152.19c-5.29-2.78-8.09-2.19-17.85-1.45-6.07.45-22.91,3.08-30.46,4.58-5.45,1.09-5.55,1-8,3.88s-8.36,10.6-8.36,10.6.07,2.67,3.38,5.32,5.59,3,5.59,3l10.24-8.23,27.57,1.45A17.4,17.4,0,0,0,123,167.39C128.92,162.4,128,152.19,128,152.19Z" style="fill:#37474f"></path><path d="M64.05,168.9l-2.7,3.3a11.55,11.55,0,0,0,3.93,5.12c3.2,2.61,5.1,2.57,5.1,2.57l3.23-2.79A22.62,22.62,0,0,1,68,173.78,13.93,13.93,0,0,1,64.05,168.9Z" style="fill:#455a64"></path></g><polygon points="143.38 175.17 139.46 167.88 134.85 167.34 139.73 177.71 143.38 175.17" style="fill:#433B87"></polygon><polygon points="143.38 175.17 139.46 167.88 134.85 167.34 139.73 177.71 143.38 175.17" style="opacity:0.15"></polygon><path d="M145.35,176.09c2.25-.84,5.42-6.55,5.42-6.55l1.3.86s-1.46,5.95-6.34,9.18C145.73,179.58,144.9,177.22,145.35,176.09Z" style="fill:#433B87"></path><path d="M145.35,176.09c2.25-.84,5.42-6.55,5.42-6.55l1.3.86s-1.46,5.95-6.34,9.18C145.73,179.58,144.9,177.22,145.35,176.09Z" style="opacity:0.15"></path><path d="M101.86,182c19.83,13.28,35.7,2.31,37.85-1l2.35,1.46c-1.34,4.92-14.45,22.15-38.73,13.75-4.9-1.83-12.55-9.6-12.26-11.59S99.88,180.7,101.86,182Z" style="fill:#433B87"></path><path d="M142,182.87c0-.14.08-.27.11-.39L139.71,181a5.74,5.74,0,0,1-.8.95A4.69,4.69,0,0,0,142,182.87Z" style="opacity:0.15"></path><path d="M143.38,175.17c1.08.55,2,.92,2,.92s.84,2.86.21,4a4.92,4.92,0,0,1-3.5,2.43,3.3,3.3,0,0,1-2.35-1.46,5.8,5.8,0,0,1,0-3.31C140.47,176.61,142.66,175.1,143.38,175.17Z" style="fill:#433B87"></path><path d="M139.46,153.76l-1.88,2.79c-.37,5.14.37,8.35,4.2,12.22a20.25,20.25,0,0,1,3.65,6.22s-2.3-3.13-4.48-2.19c-2.85,1.24-4.65,2.72-5.58,2s-4.07-6.28-4.08-11.37a24.37,24.37,0,0,1,1.76-8.9C136.14,154.12,137.89,152.47,139.46,153.76Z" style="fill:#37474f"></path><path d="M145.43,175c4.16-.56,4.35,2.65,5.16,2.33s4.34-10.47,3-13.86Z" style="fill:#37474f"></path></g></g></svg>