<svg width="312" height="217" viewBox="0 0 312 217" fill="none" xmlns="http://www.w3.org/2000/svg">
<path d="M81.9255 88.7027C83.5506 88.3769 84.605 86.7963 84.2805 85.1721C83.956 83.548 82.3755 82.4954 80.7503 82.8211L81.9255 88.7027ZM4.26119 125.742C3.25184 127.057 3.49912 128.939 4.81349 129.947C6.12787 130.955 8.01162 130.706 9.02097 129.391L4.26119 125.742ZM102.319 115.812C103.953 115.535 105.053 113.986 104.777 112.353C104.501 110.72 102.952 109.621 101.318 109.899L102.319 115.812ZM33.6216 142.205C32.3622 143.283 32.2146 145.177 33.2919 146.435C34.3691 147.692 36.2633 147.838 37.5226 146.761L33.6216 142.205ZM104.382 156.375C105.998 156.006 107.009 154.397 106.641 152.783C106.273 151.168 104.664 150.158 103.048 150.528L104.382 156.375ZM24.4979 188.679C23.2512 189.771 23.1256 191.666 24.2174 192.911C25.3092 194.157 27.205 194.28 28.4517 193.188L24.4979 188.679ZM80.7503 82.8211C69.5991 85.0561 54.4903 90.6256 40.2489 98.134C26.0497 105.62 12.3296 115.233 4.26119 125.742L9.02097 129.391C16.3112 119.896 29.1369 110.772 43.0452 103.439C56.9112 96.1289 71.4715 90.798 81.9255 88.7027L80.7503 82.8211ZM101.318 109.899C89.8441 111.847 57.5153 121.756 33.6216 142.205L37.5226 146.761C60.363 127.212 91.5773 117.637 102.319 115.812L101.318 109.899ZM103.048 150.528C83.3315 155.036 48.9515 167.253 24.4979 188.679L28.4517 193.188C51.8635 172.675 85.168 160.769 104.382 156.375L103.048 150.528Z" fill="#FCAC12"/>
<g style="mix-blend-mode:overlay">
<path d="M81.9255 88.7027C83.5506 88.3769 84.605 86.7963 84.2805 85.1721C83.956 83.548 82.3755 82.4954 80.7503 82.8211L81.9255 88.7027ZM4.26119 125.742C3.25184 127.057 3.49912 128.939 4.81349 129.947C6.12787 130.955 8.01162 130.706 9.02097 129.391L4.26119 125.742ZM102.319 115.812C103.953 115.535 105.053 113.986 104.777 112.353C104.501 110.72 102.952 109.621 101.318 109.899L102.319 115.812ZM33.6216 142.205C32.3622 143.283 32.2146 145.177 33.2919 146.435C34.3691 147.692 36.2633 147.838 37.5226 146.761L33.6216 142.205ZM104.382 156.375C105.998 156.006 107.009 154.397 106.641 152.783C106.273 151.168 104.664 150.158 103.048 150.528L104.382 156.375ZM24.4979 188.679C23.2512 189.771 23.1256 191.666 24.2174 192.911C25.3092 194.157 27.205 194.28 28.4517 193.188L24.4979 188.679ZM80.7503 82.8211C69.5991 85.0561 54.4903 90.6256 40.2489 98.134C26.0497 105.62 12.3296 115.233 4.26119 125.742L9.02097 129.391C16.3112 119.896 29.1369 110.772 43.0452 103.439C56.9112 96.1289 71.4715 90.798 81.9255 88.7027L80.7503 82.8211ZM101.318 109.899C89.8441 111.847 57.5153 121.756 33.6216 142.205L37.5226 146.761C60.363 127.212 91.5773 117.637 102.319 115.812L101.318 109.899ZM103.048 150.528C83.3315 155.036 48.9515 167.253 24.4979 188.679L28.4517 193.188C51.8635 172.675 85.168 160.769 104.382 156.375L103.048 150.528Z" fill="url(#paint0_linear_1257_5019)" fill-opacity="0.32"/>
</g>
<path d="M118.647 168.495C118.802 132.14 112.15 89.3188 105.52 68.3035C104.277 64.3634 105.801 59.9402 109.495 58.0893C174.297 25.6122 251.986 29.161 286.135 38.439C288.789 39.1602 290.772 41.2968 291.395 43.9762C297.559 70.4647 298.454 98.3823 296.819 138.13C296.655 142.116 293.551 145.364 289.58 145.746C219.446 152.504 195.591 158.845 128.971 176.589C123.744 177.981 118.624 173.905 118.647 168.495Z" fill="#EEE5FF"/>
<g style="mix-blend-mode:soft-light">
<path d="M118.647 168.495C118.802 132.14 112.15 89.3188 105.52 68.3035C104.277 64.3634 105.801 59.9402 109.495 58.0893C174.297 25.6122 251.986 29.161 286.135 38.439C288.789 39.1602 290.772 41.2968 291.395 43.9762C297.559 70.4647 298.454 98.3823 296.819 138.13C296.655 142.116 293.551 145.364 289.58 145.746C219.446 152.504 195.591 158.845 128.971 176.589C123.744 177.981 118.624 173.905 118.647 168.495Z" fill="url(#paint1_linear_1257_5019)"/>
</g>
<path fill-rule="evenodd" clip-rule="evenodd" d="M166.593 93.9124C180.1 99.2605 192.999 104.368 205.888 108.216C216.564 111.404 260.923 79.5615 290.305 44.9975C291.162 43.9887 291.429 42.5897 290.995 41.3391C290.607 40.2207 289.742 39.3928 288.608 39.0546C255.855 29.2916 175.9 24.7772 109.464 58.082C105.771 59.9335 104.266 64.3627 105.682 68.243C105.822 68.6275 105.964 69.0188 106.105 69.4166C107.02 71.9822 109.122 73.9534 111.75 74.6696C131.773 80.1259 149.661 87.2084 166.593 93.9124Z" fill="#8F57FF"/>
<g style="mix-blend-mode:overlay" opacity="0.24">
<path fill-rule="evenodd" clip-rule="evenodd" d="M166.593 93.9124C180.1 99.2605 192.999 104.368 205.888 108.216C216.564 111.404 260.923 79.5615 290.305 44.9975C291.162 43.9887 291.429 42.5897 290.995 41.3391C290.607 40.2207 289.742 39.3928 288.608 39.0546C255.855 29.2916 175.9 24.7772 109.464 58.082C105.771 59.9335 104.266 64.3627 105.682 68.243C105.822 68.6275 105.964 69.0188 106.105 69.4166C107.02 71.9822 109.122 73.9534 111.75 74.6696C131.773 80.1259 149.661 87.2084 166.593 93.9124Z" fill="url(#paint2_linear_1257_5019)"/>
</g>
<defs>
<linearGradient id="paint0_linear_1257_5019" x1="107.966" y1="90.6565" x2="-3.8334" y2="176.177" gradientUnits="userSpaceOnUse">
<stop stop-opacity="0.106061"/>
<stop offset="1"/>
</linearGradient>
<linearGradient id="paint1_linear_1257_5019" x1="240.96" y1="8.40553" x2="115.82" y2="268.885" gradientUnits="userSpaceOnUse">
<stop offset="0.169958" stop-color="white"/>
<stop offset="1" stop-color="white" stop-opacity="0"/>
</linearGradient>
<linearGradient id="paint2_linear_1257_5019" x1="228.989" y1="8.84873" x2="195.756" y2="107.926" gradientUnits="userSpaceOnUse">
<stop stop-color="white"/>
<stop offset="1" stop-color="white" stop-opacity="0"/>
</linearGradient>
</defs>
</svg>
