<svg version="1.1" xmlns="http://www.w3.org/2000/svg" xmlns:xlink="http://www.w3.org/1999/xlink" x="0px" y="0px"
	 width="856.94px" height="452.47px" viewBox="0 0 856.94 452.47" style="enable-background:new 0 0 856.94 452.47;"
	 xml:space="preserve">
<style type="text/css">
	.st0{fill:none;}
	.st1{fill:none;stroke:#000000;stroke-width:2;stroke-miterlimit:10;}
</style>
<defs>
</defs>
<rect class="st0" width="856.94" height="452.47"/>
<g>
	<path class="st1" d="M600.62,254.46c9.26,7.8,14.42,4.65,23.26,3.26c8.84-1.4-13.72-1.86-17.91-3.72
		c-4.19-1.86,21.4,3.26,21.4,3.26c11.16-2.33,1.16,14.89,1.16,14.89s-1.63,12.56-7.21,15.35c-3.59,1.79-10.35,0.8-14.72-0.14
		c-2.3-0.49-4.69,0.53-5.83,2.59c-4.69,8.46-11.08,10.1-11.08,10.1c-12.33,6.28-27.01-0.97-23.03,3.26
		c6.98,7.41,29.54-8.84,29.54-8.84s1.4-2.09,1.16-4.88c-0.06-0.7-0.38-1.19-0.83-1.54c-0.61-0.47-0.34-1.45,0.4-1.66
		c3.45-0.98,4.01-2.13,5.78-3.54c2.33-1.86-1.4-8.14-3.95-6.28c-2.56,1.86,1.16,2.56,1.16,2.56s6.05,3.49,7.21-4.42
		c0.81-5.51-4.02-9.09-7.02-10.77c-1.92-1.07-3.73,1.74-1.89,2.94c2.17,1.41,6.59,1.32,6.59,1.32s4.19-0.7,3.72-6.05
		C608.07,256.78,600.62,254.46,600.62,254.46c-23.96-6.98-58.61,23.03-58.61,23.03s-11.86,6.51-15.82,6.05
		c-3.95-0.47,6.75-3.26,6.75-3.26s22.56-14.19,18.61-10.23s1.63,11.86,1.63,11.86c7.91,6.28,8.84,22.33,9.54,27.21
		c0.7,4.88,8.84,8.84,3.72,11.86c-5.12,3.02-92.8,44.89-92.8,44.89s-11.16,10.23-28.61,7.44c-17.44-2.79-19.54-25.82-23.96-38.38
		c-4.42-12.56-12.33-69.55-12.33-69.55c-10.7-28.14-10.93-31.87-10.23-43.49c0.45-7.55,1.79-4.32,2.67-1.12
		c0.53,1.91,0.74,3.88,0.65,5.85c-0.16,3.39-0.24,10.25,0.87,19.92c1.15,10.05,3.24,11.93,4.36,12.17c0.74,0.16,1.49,0.27,2.23,0.45
		c8.23,2,9.12-14.91,9.22-19.28c0.01-0.31-0.4-0.43-0.56-0.17c-10.14,16.02-4.03,63.91-1.29,94.29
		c2.79,30.93,20.47,43.26,20.47,43.26s15.58,8.84,15.82-8.14c0.23-16.98,9.3-30.7,9.3-30.7s14.42-17.44,6.75-17.91
		c-6.67-0.4-17.73,16.75-20.51,21.26c-0.29,0.46-0.98,0.33-1.1-0.2c-1.98-8.77,15.39-22.94,21.15-28.03
		c6.05-5.35-20.93,11.86-27.21,14.89c-6.28,3.02,14.89-12.56,30.47-17.91c13.34-4.58,11-33.17,10.05-41.33
		c-0.08-0.7-0.41-1.33-0.73-1.96c-0.33-0.66-0.28-4.59,2.77-21.83c4.65-26.28,1.4,13.03,1.4,13.03s-1.4,2.09-1.16,19.54
		c0.23,17.44-1.16,20.93-1.16,20.93c-8.14,16.05,3.95,7.21,3.95,7.21s26.75-14.65,30-16.28c3.26-1.63,3.95-10.7,3.95-10.7
		s3.95-28.38,6.28-32.56s2.33-12.09,2.33-12.09l-0.65-4.54c-0.33-2.28-0.08-4.6,0.68-6.77c1.4-3.99,3.4-10.73,2.3-14.05
		c-1.63-4.88-2.33,5.58-1.16,15.12s1.86,2.79,5.35-4.65s6.05-9.07,8.14-14.42c2.09-5.35-7.21-11.4-7.44-9.07
		c-0.23,2.33,3.49,2.56,3.49,2.56s18.37,7.68,2.33-12.33c-16.05-20,11.12-35.01,11.12-35.01c27.45-22.31,19.81-8.26,19.81-8.26
		c-4.65,10-2.79,13.96-2.79,13.96s-0.23,4.42,5.58,11.63c5.81,7.21-0.47,14.42-1.16,17.21c-0.48,1.93,1.59,5.63,2.92,7.74
		c0.71,1.13,2.35,1.17,3.1,0.06c0.41-0.61,0.79-1.47,1.02-2.68c0.76-3.95,3.66-3.26,3.66-3.26s5.12,1.63,7.21-3.49
		c2.09-5.12,6.01-0.63,6.01-0.63c9.54,9.77,8.57-6.71,8.57-6.71c0.34-2.33,0.17-5.33,0.49-7.1c0.93-5.11,2.17-8.38,6.21-11.64
		c1.06-0.86,1.74-1.91,2.18-2.84c0.56-1.19,1.2-2.34,1.93-3.43c0.98-1.47,2.3-4.73,2.99-11.83c1.16-12.09,1.63-9.54,1.63-9.54
		c-1.2,12.4-2.09,13.72-2.09,13.72c-3.02,13.72-5.12,13.96-5.12,13.96c-10.23,3.72-7.52,7.61-7.52,7.61l-0.25,4.95
		c-0.09,0.15-0.14,0.32-0.14,0.5c-0.03,2.29-0.39,18.52-5.58,14.62c-5.58-4.19-6.51-3.49-6.51-3.49
		c-1.86,6.05-10.47,7.44-10.47,7.44c-1.4,8.14-1.4,5.35-6.98,8.61c-5.58,3.26-0.93,5.12-5.12,12.79
		c-4.19,7.68-25.35-6.75-34.66-26.75s24.42-39.77,24.42-39.77c11.86-2.33-9.3-24.42-9.3-24.42c-13.03-5.81-11.16,6.51-11.16,6.51
		c0,18.26,4.29,19.62,6.46,19.14c0.95-0.21,1.93-0.13,2.89-0.02c5.26,0.6,1.35-11.91,1.35-11.91c6.51-7.44,2.56-10.7-5.12-10.7
		c-7.68,0-13.03,1.86-13.26,8.84c-0.23,6.98-3.26,9.3-3.26,9.3c-9.35,3.48-13.36,3.6-14.99,2.75c-1.3-0.68-0.33-2.67,1.06-2.2
		c15.32,5.24,18.35-7.3,18.35-7.3c9.77-18.14,10.23-17.91,10.23-17.91s7.69-7.94,15.82,10.93c7.63,17.7,7.44,11.86,7.44,11.86
		l6.02-4.56c1.42-1.08,3-1.94,4.71-2.47c3.1-0.97,8.69-3.59,10.67-10.18c2.79-9.3,7.44-16.51,7.44-16.51
		c13.89-5.52,22.34,12.16,24.95,18.77c0.44,1.12,1.94,1.32,2.66,0.36c8.13-10.88,5.75-33.01,3.98-31.9
		c-1.88,1.18-3.21,0.21-3.21,0.21c-6.35-2.84-35.65-16.35-42.95-19.71c-1.31-0.6-2.67-1.06-4.09-1.32
		c-6.31-1.2-23.73-2.85-39.02,10.88c-19.07,17.13-25.12,60.39-46.52,65.51c0,0-7.91,0-3.26,7.91c4.65,7.91,21.86,45.12,23.26,55.82
		c1.4,10.7-6.98,2.79,19.54-19.07c0,0,2.33-7.91-27.45-43.26c0,0-20-22.33-20.47-3.72c-0.23,9.3-0.23,11.28-0.17,10.93
		c0.25-1.47-1.2-2.68-2.64-2.28c-12.84,3.57-68.33,27.21-84.64,59.43"/>
	<path class="st1" d="M566.43,304.93c0,0-4.19,7.21,3.72,12.56c0,0,2.46,4.42-17.21,12.09c0,0-11.53,2.33,8.66,4.42
		c20.19,2.09,18.56,5.12,38.33,6.51c19.77,1.4,8.14-0.23,7.21,6.05c-0.93,6.28-1.4,3.72,0.47,22.1c0,0,2.33,9.77-15.12,6.28
		c-17.44-3.49-40.47-3.95-40.47-3.95s-20.24,0-25.82-3.95c-5.58-3.95-13.72-6.51-13.72-6.51s-5.58-5.35-0.93-10.93
		c0,0,3.95-2.33,1.16,24.42c0,0-1.55,3.28,0.1,10.59c0.54,2.39,2.11,4.42,4.25,5.61c2.65,1.47,6.49,3.57,9.61,5.2
		c5.35,2.79-10.6-11.05-12.33-11.4c0,0-5.81-12.79,3.95-18.84c0,0,3.49-2.09,17.68,0.93s23.96,8.37,41.4,0.93
		c0,0,10.93-5.58,25.82-4.65c0,0,2.56,0.23,9.54,1.16c6.98,0.93,9.54-3.72,18.61-7.44s11.4-3.02,11.4-3.02s13.03,1.77,13.96-2.72
		c0.93-4.49-15.82-6.81-15.82-6.81s-14.19-1.16-3.02-3.02c0,0,10.47,2.33,6.98-0.23c0,0-0.07-3.26-5.12-1.16
		c0,0-2.02,6.05,17.02,6.28c0,0,5.78-2.79-13.3-13.96c0,0-9.3-10.23-24.65,3.49s-8.14,26.75-8.14,26.75s-3.72,3.49,22.1-2.56
		c0,0,8.37,3.95,20.7-3.26c0,0,5.35-1.86-3.49,8.37c-8.84,10.23,3.95,7.68,3.95,7.68h51.87c0,0,2.56,0.23,1.63-5.58
		c-0.38-2.35-0.41-4.24-0.33-5.66c0.17-2.78-2.55-4.91-5.15-3.91c-0.03,0.01-0.07,0.03-0.1,0.04c-3.49,1.4-2.09,10.47-2.09,10.47
		s0.47,2.09,3.49,2.33c3.02,0.23,10.93,2.79,13.49,0.23s0-12.09,0-12.09s-7.21-3.95-7.91,6.51c-0.51,7.59,5.59,7.23,8.98,6.46
		c0.77-0.17,1.55-0.32,2.33-0.27c0.44,0.03,1.6-0.26,4.51-1.54c5.81-2.56,0-12.79,0-12.79s-6.98-3.02-5.81,4.88s-1.58,8.61,8.4,9.3
		s9.05-3.72,9.05-3.72s-1.18-11.87-6.05-10.47c-4.87,1.41-0.7,10-0.7,10s4.19,4.65,12.56,3.02s0-11.86,0-11.86s-6.75-4.19-3.49,6.51
		s14.65,3.95,14.65,3.95l-6.05-12.09c0,0-3.49-1.63-0.23,4.88s-0.93,9.54,13.03,9.3c0,0,6.51,2.33,5.12-1.86
		c-1.25-3.75-7.91-16.09-8.12-10.26c-0.06,1.59,0.41,3.15,1.22,4.51l5.74,9.7c0,0,0,6.28,6.05-2.79
		c6.05-9.07,61.17-82.34,61.17-82.34l5.35-8.37c0,0,1.86-1.4-7.44-1.4s-7.44-3.49-16.05,6.98c-8.61,10.47-47.45,63.96-47.45,63.96
		s-1.63,1.4,0.23,5.12c1.86,3.72,5.12,16.75,11.63,3.26l50.94-68.85c0,0,2.35-3.64-9.97-3.52c-1.04,0.01-2.02,0.49-2.67,1.3
		l-54.11,67.12c0,0-2.33,4.65-11.86,3.26l-91.87,1.16c0,0-10.47,7.91-11.4,16.05c-0.93,8.14,41.87,3.49,41.87,3.49l55.36-0.47
		c0,0,6.28-6.28-7.68-4.88s14.19-0.23,14.19-0.23s5.58,1.86-3.49,3.02c0,0-6.75,5.58,15.82,1.86"/>
	<path class="st1" d="M646.68,331.45l12.09-13.26c0,0-0.7-3.26,35.59-1.4s94.38-0.57,94.38-0.57"/>
	<line class="st1" x1="810.66" y1="316.22" x2="833.8" y2="316.22"/>
</g>
</svg>

