<svg version="1.1" xmlns="http://www.w3.org/2000/svg" xmlns:xlink="http://www.w3.org/1999/xlink" x="0px" y="0px"
	 width="856.94px" height="452.47px" viewBox="0 0 856.94 452.47" style="enable-background:new 0 0 856.94 452.47;"
	 xml:space="preserve">
<style type="text/css">
	.st0{fill:none;stroke:#000000;stroke-width:2;}
	.st1{fill:none;}
</style>
<defs>
</defs>
<g>
	<path class="st0" d="M686.01,23.18c7.79,15.98,15.38,35.05,9.64,51.03c-5.56,15.5-6.12,19.44-4.65,35.35
		c-0.28,1.04-0.54,1.98-0.82,3.02c-2.68,3.7-10.7,12.16-21.37-0.72c-0.4-0.49-0.65-1.09-0.73-1.71l0,0
		c-0.01-0.03-3.14-16.27,18.56-17.49c0,0,0,0,0,0c0.02,0.02,12.7,9.61,9.02,1.23c-3.69-8.38-1.64-7.79-1.64-7.79c0,0,0,0,0,0
		c0.01,0.01,7.79,9.43,7.79,12.71c0,3.28-4.51,4.1-5.74,7.38c-0.58,1.54-1.15,3.44-1.6,5.02c-0.51,1.79-1.29,3.5-2.38,5.01
		c-1.88,2.62-4.89,8.12-5.44,17.02c-0.79,12.63-8.05,15.76-8.58,15.97c-0.02,0.01-0.03,0.03-0.03,0.05
		c0.09,0.76,1.55,14.11-1.23,21.28c-2.73,7.03-30.78,51.66-72.44,3.68c-4.25-4.89-6.14-11.4-5.11-17.79
		c0.33-2.05,0.76-4.44,1.31-7.2c2.39-11.97-78.69,34.84-85.12,51.04c-0.17,0.42-6.92,13.36-7.21,13.72
		c-9.32,11.89-15.81,20.96,17.33,115.58c0,0,16.8,85.66,72.95,83.2s108.2-15.16,108.2-15.16s9.43,0.41,18.85,6.97
		c9.43,6.56,12.3,2.56,16.39,8.25c0,0,0,0,0,0c0,0,2.16,8.79,1.75,14.11c-0.41,5.33-199.19,0-199.19,0l-14.75-0.82c0,0,0,0,0,0
		c0,0-9.84,2.46-11.07-12.3c-1.23-14.75,3.28-74.18,1.64-79.92c-1.64-5.74,4.51-11.48-45.08-8.2"/>
	<path class="st0" d="M831.7,348.99l-34.02-2.05c0,0-26.64,2.46-35.66-11.07c-9.02-13.53-17.57,8.61-17.57,8.61
		s-9.89,13.25-9.89-4.24s5.33-19.12,5.33-19.12l2.12-2.86c1.35-1.82,1.49-4.25,0.46-6.27c-1.96-3.84-2.99-10.11,10.53-10.95
		c19.67-1.23,39.35-34.84,39.35-34.84l19.26-29.1c0,0,6.97-13.53-23.77-5.33s-62.3,5.33-62.3,5.33s-21.31,2.05-8.61,28.69
		c0,0-11.07,9.02-5.74,15.98c5.33,6.97,13.12-8.61,13.12-20.49c0-11.89-16.39-0.82-16.39-0.82s-6.15,0-2.87-9.84
		c3.28-9.84-25.82-19.26-25.82-19.26l-48.36-13.53c0,0-30.74-3.28-12.71,5.74c18.03,9.02,86.48,23.36,81.56,34.84
		c-4.92,11.48-13.12,20.08-18.44,52.46c0,0-20.49,15.16-47.95-1.64c-27.46-16.8-52.05-25.96-52.05-25.96s-10.66,4.65,14.34-40.43
		l14.58-33.2c0,0-4.74-7.79,27.64,4.1c32.38,11.89,48.36-29.92,48.36-29.92s3.69-27.05,17.21-17.21s54.92,27.46,59.84,42.63
		c4.92,15.16,12.71,119.54,20.08,128.7c7.18,8.91,1.55,59.87-23.32,63.73c-1.35,0.21-2.69,0.47-4.01,0.86
		c-7.46,2.19-35.56,7.26-63.67-28.93c0,0-10.66-9.43-16.39-36.48l-23.57-33.2c0,0-24.84-26.56-16.43-3.84
		c0.14,0.38,0.36,0.72,0.65,1.01c4.11,4.02,37.54,33.11,35.24,20.46c0,0-8.61-8.2-11.48-16.8c-2.87-8.61-17.21-20.47-17.21-20.47
		s-2.46-11.91,9.22-2.89c11.68,9.02,17.42,22.54,17.42,22.54s13.53,13.12,3.28-4.1c-8.75-14.7-16.31-22.53-9.9-24.24
		c2.47-0.66,5.1,0.27,6.78,2.2l19.51,22.45c0,0,10.94,15.73,8.61-9.02c-2.34-24.74,7.27-10.25,7.27-10.25s4.2,6.15,5.02,20.49
		c0.82,14.35,22.54-12.3,22.54-12.3s4.78-10.69,12.95-11.09c3.11-0.15,5.28,3.03,4.2,5.94c-1.96,5.29-6.83,14.8-18.79,27.29
		c0,0-4.92,6.56-3.69,20.49c1.23,13.94-5.95,18.44-22.24,19.26c-16.29,0.82-16.29,4.51-35.96-11.89c0,0-74.59,13.94-71.32-14.34
		c3.28-28.28-22.95-115.17-22.95-115.17s0-35.66,20.49-54.51c0,0,6.61-2.46,14.58-12.71c7.97-10.25,21.49,9.43,21.49,9.43
		s9.02,8.2,24.59,4.51c15.57-3.69,23.36,11.48-0.41,13.53c-23.77,2.05-40.58-20.9-40.58-20.9s-9.85-12.56-5.64-32.17
		c0.34-1.57,0.35-3.19,0.03-4.76l-5.76-28.52c-0.33-1.65-0.17-3.36,0.47-4.92c1.73-4.2,5.42-13.66,8.43-25.13
		c4.1-15.57,14.75-36.48,21.72-22.95s6.56,3.28,6.56,3.28s-3.28-21.41,6.15-7.63s37.71,42.88,37.71,42.88s14.75,18.44-11.48,14.75
		c0,0-18.03,10.66-25-3.28c0,0,1.86-28.98-11.4-14.43c-1.29,1.41-2.16,3.15-2.52,5.02c-1.08,5.6-4.66,18.55-14.35,15.96
		c-12.3-3.28-16.39,9.02-0.82,14.34c0,0,4.92,7.38,9.84,3.28c4.62-3.85,11.06-9.88,24.75-4.8c1.79,0.67,3.66,1.12,5.56,1.4
		c1.23,0.18,2.87,0.47,4.94,0.94c3.58,0.81,1.43,2.57-0.37,3.63c-0.77,0.45-1.61,0.73-2.49,0.91c-1.2,0.25-3.48,1.54-4.93,7.34
		c-2.05,8.2-11.48,20.08-26.64,9.84l-5.33-12.3c0,0-22.54-21.31-26.23-8.2s-6.15,9.84-9.02,0.82c0,0,6.35-22.57-7.12-11.45
		c-2.25,1.86-3.28,4.83-2.6,7.67c2.02,8.42,7.56,26.28,18.74,30.01c14.75,4.92,4.1-24.59,4.1-24.59s4.1-13.53-17.62-25.82
		s-0.59-68.4,22.04-64.33c0,0,31.02-1.7,42.4-5.17s32.58,5.64,36.6,12.55"/>
</g>
<rect class="st1" width="856.94" height="452.47"/>
</svg>
