<svg version="1.1" xmlns="http://www.w3.org/2000/svg" xmlns:xlink="http://www.w3.org/1999/xlink" x="0px" y="0px"
	 width="856.94px" height="452.47px" viewBox="0 0 856.94 452.47" style="enable-background:new 0 0 856.94 452.47;"
	 xml:space="preserve">
<style type="text/css">
	.st0{fill:none;}
	.st1{fill:none;stroke:#000000;stroke-width:2;stroke-miterlimit:10;}
</style>
<defs>
</defs>
<rect class="st0" width="856.94" height="452.47"/>
<g>
	<path class="st1" d="M421.64,377.41c9.28-17.46,21.95-64.21,27.12-84.12c1.27-4.88,3.31-9.49,5.85-13.83
		c3.58-6.12,8.67-19.2,9.12-44.45c0,0-20.34-86.98-15.43-96.1s11.22,6.31,11.22,6.31s29.46,76.46,42.79,126.97
		s23.15,70.85,3.51,63.84s-38.58-69.74-38.58-69.74s-32.97-89.5-27.36-122.47c5.61-32.97,30.87,50.51,30.87,50.51
		s45.6,158.54,24.55,141c-21.04-17.54-28.06-57.52-28.06-57.52s-7.72-46.3-21.75-8.42c-10.84,29.28-21.27,64.84-25.44,79.48
		c-1.27,4.46-1.91,9.08-1.91,13.72l0,0l-0.37,5.52c-0.13,2.79,4.05,9.13,47.37,5.79l63.13,2.81l14.03,1.4c0,0,3.51,0.7,4.91,4.91
		c1.4,4.21,50.51-1.4,50.51-1.4s10.52-9.12-25.25-9.82c-35.78-0.7-10.52-16.84,0-9.82c10.52,7.01-27.36,9.12-32.97,4.91
		c-5.61-4.21,9.12-17.54,28.76-19.64c0,0,25.25,9.12,39.98,16.13c0,0,38.58-2.1,30.16,12.63c-8.42,14.73-32.27,4.91-32.27,4.91
		s-6.31-7.01,14.73-4.91c14.6,1.46,40.64,7.12,61.03,9.12c12.85,1.26,35.26-4.08,45.95-11.31c8.8-5.96,19.37-15.03,29.81-28.67
		l24.03-24.03c4.43-4.43,8.03-9.66,10.36-15.48c2.33-5.82,2.94-10.79-5.87-4.05c-5,3.82-9.19,8.58-12.5,13.93
		c-7.79,12.6-27.37,40.97-51.1,50.67c-12.86,5.26-18.78,7.96-21.31,9.33c-3.61,1.95-7.58,3.15-11.66,3.61
		c-9.19,1.02-21.96,0.13-30.17-10.13c-14.03-17.54-25.96-30.16-19.64-47.7l14.73-14.03c0,0,6.24-11.97-5.91-4.09
		c-3.86,2.5-6.72,6.19-8.71,10.34c-1.66,3.47-5.28,5.06-12.74-11.16c-11.93-25.96-23.15-39.28-23.15-39.28s-16.84-2.81-32.97-3.51
		c-16.13-0.7-44.9-27.36-44.9-27.36s-3.51-10.52,21.04-4.21c0,0,9.82,0.7,20.34,10.52c7.97,7.44,18.76,5.22,23.53,3.7
		c0.7-0.22,0.63-1.24-0.09-1.38l-15.72-3.02c0,0-23.15-6.31,3.51-7.72c26.66-1.4,32.97,8.42,32.97,8.42s12.63,13.33,33.67,51.21
		c14.47,26.04,27.28,35.51,33.87,38.88c2.3,1.18,4.37,2.72,6.35,4.39c2.74,2.32,9.7,2.76,26.42-17.31
		c24.55-29.46,26.66-36.48,26.66-36.48s-3.51-27.36,32.27-49.81c0,0,30.87-18.94,55.42,65.24s18.24,79.27,18.24,79.27
		s-18.91-14.03-2.1-58.22c16.81-44.19-28.06-77.87-28.06-77.87s-33.67-44.9-42.09-92.6c-8.42-47.7-90.49-15.43-83.48-2.81
		c0,0,28.06,2.1,17.54,49.1c0,0-9.82,11.22,15.43,31.57c0,0,7.73,1.4-2.81-27.36c0,0,7.33-44.05-7.72-54.01
		c0,0,8.42-13.33,21.75,18.24c13.33,31.57,14.73,22.45,14.73,22.45s6.81,1.82,3.63-12.82c-1.68-7.72-5.8-14.71-11.7-19.96
		c-8.01-7.13-17.59-17.52-1.04-14.21c0,0,17.54,4.91,28.06,54.01c0,0,10.52,27.28,9.12-3.51c0,0-11.93-53.31-34.37-62.43
		c-22.45-9.12-39.28,5.61-38.58-10.52c0.7-16.13,3.51-16.13,18.24-16.84c14.73-0.7,35.78,0,35.78,0s23.58-6.52,26.66,29.46
		c3.67,42.93,51.63,114.98,51.63,114.98"/>
	<path class="st1" d="M573.49,336.77c0,0,22.12-0.75,13.7,9.07c-8.42,9.82-9.85,8.96-9.82,17.54c0.03,8.58-55.42,9.82-55.42,9.82
		s-11.02-3.51,8.42-11.93c19.44-8.42,32.27-2.81,32.97-19.64c0.7-16.84,14.73-77.87,14.73-77.87s10.52-18.94,17.54-63.13
		s-7.01-77.16,28.06-76.46c0,0,1.93-1.4,9.03,4.91s6.65-2.18,14.36,5.54c3.74,3.74,8.7,8.16,12.82,11.71
		c4.24,3.66,10.65-0.52,8.95-5.86c-0.03-0.09-0.06-0.19-0.09-0.28c-0.2-0.6,0.49-1.09,1-0.72c2.06,1.46,5.47,2.61,9.35-1.26
		c6.31-6.31,14.03-20.34,14.03-28.06s-2.81-14.65-11.22-14.34c0,0,5.61,24.16-20.34,35.39c-14.52,6.28-20.26,2.9-22.5-1.3
		c-1.57-2.94-3.49-5.72-6.02-7.89c-2.5-2.14-5.76-7.47-9.22-19.91c-0.28-1.01-0.56-2.06-0.84-3.16c0,0,9.5-11.75-16.46-13.86
		c0,0-9.5-0.59,8.74-9.85c0,0,11.22-49.95,47.7-35.92c0,0,18.24,2.81,21.75,25.96c0,0,5.61,10.52,4.91,18.94s-9.82-0.7-14.03,18.94
		c-4.21,19.64-7.89,21.04-7.89,21.04s-15.25,23.15-23.67,3.51c0,0-2.81-3.51,7.72-7.01c10.52-3.51-7.01-4.21-7.01-4.21
		s-4.21-6.31-6.31-4.91c-1.84,1.23-1.04,7.33-5.7-7.01c-1.32-4.07-5.66-3.78-7.84-7.47c-3.53-6-6.19-17.52,17.75-25.5
		c0,0,7.72-14.44,10.52,3.65c0,0,10.17,4.77,14.55,5.47c4.39,0.7,10.7,10.81,10-5.47s17.22,6.05,15.43,15.99s5.5,5.58,5.91,38.91
		c0,0-14.32,8.09-14.32,36.85s-4.91,23.85-4.91,23.85s-4.21,6.31,2.1,7.72c6.31,1.4,8.42,0.32,5.61,6.47s11.76-0.98,10.06,5.88
		c-1.34,5.39-5.54,3.88-4.75,9.34c0.39,2.68,0.91,5.44,0.43,8.11c-0.42,2.28,4.69,2.27,25.12,3.18c0,0,14.24,5.32,18.24,19.49
		c3.99,14.17,18.24-20.19,18.24-20.19s10.52-8.42,6.31-11.22c-4.21-2.81-18.51,2.15-29.46-19.64s-2.1-23.85-2.1-23.85
		s6.31,12.63-4.91,20.34c-11.22,7.72,0.7,15.43,3.51,26.66s11.22,41.39,7.72,42.09c-3.51,0.7-3.51-4.21-10.52-18.94
		s-25.96-14.73-24.55-7.72c1.18,5.9,1.86,18.74-3.79,34.36c-1.42,3.92-1.33,4.03-4.22,7.03c-1.38,1.44-3.28,8.12,9.41,17.53
		c0,0,12.18,19,5.28,15.18c-5.95-3.29-13.4-2.1-17.55,3.29c-0.12,0.15-0.24,0.31-0.36,0.47c-6.31,8.42-28.76-14.03-34.37-31.57
		c0,0,17.54-37.18-5.61-61.73c-21.55-22.86-27.29-31.73-35.91-70.2c-0.26-1.15,1.36-1.7,1.85-0.63l17.14,37.86
		c0,0,6.4,8.42-4.12,28.76l-32.27,113.64C596.31,332.52,558.67,314.9,573.49,336.77"/>
</g>
</svg>
